<svg width="35" height="35" viewBox="0 0 35 35" fill="none" xmlns="http://www.w3.org/2000/svg">
<path d="M26.3867 15.7227C27.1418 15.7227 27.7539 15.1105 27.7539 14.3555C27.7539 13.6004 27.1418 12.9883 26.3867 12.9883C25.6316 12.9883 25.0195 13.6004 25.0195 14.3555C25.0195 15.1105 25.6316 15.7227 26.3867 15.7227Z" fill="#0E0F28"/>
<path d="M29.5312 2.73438H27.7539V1.36719C27.7539 0.61209 27.1418 0 26.3867 0C25.6316 0 25.0195 0.61209 25.0195 1.36719V2.73438H18.7988V1.36719C18.7988 0.61209 18.1867 0 17.4316 0C16.6765 0 16.0645 0.61209 16.0645 1.36719V2.73438H9.91211V1.36719C9.91211 0.61209 9.30002 0 8.54492 0C7.78982 0 7.17773 0.61209 7.17773 1.36719V2.73438H5.46875C2.45328 2.73438 0 5.18766 0 8.20312V29.5312C0 32.5467 2.45328 35 5.46875 35H15.9277C16.6828 35 17.2949 34.3879 17.2949 33.6328C17.2949 32.8777 16.6828 32.2656 15.9277 32.2656H5.46875C3.96102 32.2656 2.73438 31.039 2.73438 29.5312V8.20312C2.73438 6.69539 3.96102 5.46875 5.46875 5.46875H7.17773V6.83594C7.17773 7.59103 7.78982 8.20312 8.54492 8.20312C9.30002 8.20312 9.91211 7.59103 9.91211 6.83594V5.46875H16.0645V6.83594C16.0645 7.59103 16.6765 8.20312 17.4316 8.20312C18.1867 8.20312 18.7988 7.59103 18.7988 6.83594V5.46875H25.0195V6.83594C25.0195 7.59103 25.6316 8.20312 26.3867 8.20312C27.1418 8.20312 27.7539 7.59103 27.7539 6.83594V5.46875H29.5312C31.039 5.46875 32.2656 6.69539 32.2656 8.20312V15.9961C32.2656 16.7512 32.8777 17.3633 33.6328 17.3633C34.3879 17.3633 35 16.7512 35 15.9961V8.20312C35 5.18766 32.5467 2.73438 29.5312 2.73438Z" fill="#0E0F28"/>
<path d="M26.7285 18.457C22.1676 18.457 18.457 22.1676 18.457 26.7285C18.457 31.2895 22.1676 35 26.7285 35C31.2895 35 35 31.2895 35 26.7285C35 22.1676 31.2895 18.457 26.7285 18.457ZM26.7285 32.2656C23.6754 32.2656 21.1914 29.7817 21.1914 26.7285C21.1914 23.6753 23.6754 21.1914 26.7285 21.1914C29.7817 21.1914 32.2656 23.6753 32.2656 26.7285C32.2656 29.7817 29.7817 32.2656 26.7285 32.2656Z" fill="#0E0F28"/>
<path d="M28.7109 25.3613H28.0957V23.9258C28.0957 23.1707 27.4836 22.5586 26.7285 22.5586C25.9734 22.5586 25.3613 23.1707 25.3613 23.9258V26.7285C25.3613 27.4836 25.9734 28.0957 26.7285 28.0957H28.7109C29.466 28.0957 30.0781 27.4836 30.0781 26.7285C30.0781 25.9734 29.466 25.3613 28.7109 25.3613Z" fill="#0E0F28"/>
<path d="M20.4395 15.7227C21.1945 15.7227 21.8066 15.1105 21.8066 14.3555C21.8066 13.6004 21.1945 12.9883 20.4395 12.9883C19.6844 12.9883 19.0723 13.6004 19.0723 14.3555C19.0723 15.1105 19.6844 15.7227 20.4395 15.7227Z" fill="#0E0F28"/>
<path d="M14.4922 21.6699C15.2473 21.6699 15.8594 21.0578 15.8594 20.3027C15.8594 19.5477 15.2473 18.9355 14.4922 18.9355C13.7371 18.9355 13.125 19.5477 13.125 20.3027C13.125 21.0578 13.7371 21.6699 14.4922 21.6699Z" fill="#0E0F28"/>
<path d="M8.54492 15.7227C9.3 15.7227 9.91211 15.1105 9.91211 14.3555C9.91211 13.6004 9.3 12.9883 8.54492 12.9883C7.78985 12.9883 7.17773 13.6004 7.17773 14.3555C7.17773 15.1105 7.78985 15.7227 8.54492 15.7227Z" fill="#0E0F28"/>
<path d="M8.54492 21.6699C9.3 21.6699 9.91211 21.0578 9.91211 20.3027C9.91211 19.5477 9.3 18.9355 8.54492 18.9355C7.78985 18.9355 7.17773 19.5477 7.17773 20.3027C7.17773 21.0578 7.78985 21.6699 8.54492 21.6699Z" fill="#0E0F28"/>
<path d="M8.54492 27.6172C9.3 27.6172 9.91211 27.0051 9.91211 26.25C9.91211 25.4949 9.3 24.8828 8.54492 24.8828C7.78985 24.8828 7.17773 25.4949 7.17773 26.25C7.17773 27.0051 7.78985 27.6172 8.54492 27.6172Z" fill="#0E0F28"/>
<path d="M14.4922 27.6172C15.2473 27.6172 15.8594 27.0051 15.8594 26.25C15.8594 25.4949 15.2473 24.8828 14.4922 24.8828C13.7371 24.8828 13.125 25.4949 13.125 26.25C13.125 27.0051 13.7371 27.6172 14.4922 27.6172Z" fill="#0E0F28"/>
<path d="M14.4922 15.7227C15.2473 15.7227 15.8594 15.1105 15.8594 14.3555C15.8594 13.6004 15.2473 12.9883 14.4922 12.9883C13.7371 12.9883 13.125 13.6004 13.125 14.3555C13.125 15.1105 13.7371 15.7227 14.4922 15.7227Z" fill="#0E0F28"/>
</svg>
