<svg width="270" height="47" viewBox="0 0 270 47" fill="none" xmlns="http://www.w3.org/2000/svg">
<path d="M0 37.6V9.40001C0 9.04304 0.278753 8.74557 0.613256 8.74557H29.9938C30.3283 8.74557 30.6071 9.04304 30.6071 9.40001V11.3038C30.6071 11.6608 30.3283 11.9582 29.9938 11.9582H4.12554C3.79104 11.9582 3.51229 12.2557 3.51229 12.6127V37.6C3.51229 37.957 3.23353 38.2544 2.89903 38.2544H0.669007C0.278753 38.2544 0 37.957 0 37.6Z" fill="#0E0F28"/>
<path d="M26.5373 38.2544H24.363C24.0285 38.2544 23.7498 37.957 23.7498 37.6V37.481C23.7498 37.362 23.8055 37.243 23.8613 37.1241L40.9209 9.04304C41.0324 8.86456 41.2554 8.74557 41.4227 8.74557H44.9907C45.2137 8.74557 45.381 8.86456 45.4925 9.04304L62.6079 37.1241C62.6637 37.243 62.7194 37.362 62.7194 37.481V37.6C62.7194 37.957 62.4407 38.2544 62.1062 38.2544H59.5416C59.3186 38.2544 59.1514 38.1354 59.0399 37.957L54.5241 30.4608C54.4126 30.2823 54.1896 30.1633 54.0223 30.1633H32.0566C31.8336 30.1633 31.6663 30.2823 31.5548 30.4608L27.039 37.957C26.9275 38.1354 26.7603 38.2544 26.5373 38.2544ZM42.4819 12.2557L34.2866 25.8798C34.0079 26.2962 34.3424 26.8911 34.7884 26.8911H51.179C51.6808 26.8911 51.9595 26.2962 51.6808 25.8798L43.5412 12.2557C43.3182 11.8392 42.7607 11.8392 42.4819 12.2557Z" fill="#0E0F28"/>
<path d="M90.9292 8.74557C95.5565 8.74557 97.898 10.9468 97.898 15.2899V18.562C97.898 22.9051 95.5565 25.1063 90.9292 25.1063H70.1342C69.7997 25.1063 69.521 25.4038 69.521 25.7608V37.6C69.521 37.957 69.2422 38.2544 68.9077 38.2544H66.6777C66.3432 38.2544 66.0645 37.957 66.0645 37.6V9.40001C66.0645 9.04304 66.3432 8.74557 66.6777 8.74557H90.9292ZM90.9292 11.9582H70.1342C69.7997 11.9582 69.521 12.2557 69.521 12.6127V21.2392C69.521 21.5962 69.7997 21.8937 70.1342 21.8937H90.9292C92.1557 21.8937 93.0477 21.6557 93.6052 21.1203C94.1627 20.5848 94.4415 19.7519 94.4415 18.562V15.2899C94.4415 14.1 94.1627 13.2076 93.6052 12.7317C93.0477 12.1962 92.1557 11.9582 90.9292 11.9582Z" fill="#0E0F28"/>
<path d="M97.5077 38.2544H95.3335C94.999 38.2544 94.7202 37.957 94.7202 37.6V37.481C94.7202 37.362 94.776 37.243 94.8317 37.1241L111.891 9.04304C112.003 8.86456 112.226 8.74557 112.393 8.74557H115.961C116.184 8.74557 116.351 8.86456 116.463 9.04304L133.578 37.1241C133.634 37.243 133.69 37.362 133.69 37.481V37.6C133.69 37.957 133.411 38.2544 133.077 38.2544H130.456C130.233 38.2544 130.066 38.1354 129.955 37.957L125.439 30.4013C125.327 30.2228 125.104 30.1038 124.937 30.1038H103.083C102.86 30.1038 102.693 30.2228 102.581 30.4013L98.0652 37.8975C97.9537 38.1354 97.7307 38.2544 97.5077 38.2544ZM113.508 12.2557L105.313 25.8798C105.034 26.2962 105.369 26.8911 105.815 26.8911H122.205C122.707 26.8911 122.986 26.2962 122.707 25.8798L114.512 12.2557C114.289 11.8392 113.731 11.8392 113.508 12.2557Z" fill="#0E0F28"/>
<path d="M161.398 9.40001V21.2392C161.398 21.5962 161.677 21.8937 162.011 21.8937H167.084C167.252 21.8937 167.419 21.8342 167.53 21.7152L180.465 8.92406C180.576 8.80507 180.743 8.74557 180.911 8.74557H183.252C183.587 8.74557 183.865 9.04304 183.865 9.40001C183.865 9.57849 183.81 9.75697 183.642 9.87596L170.43 22.9051C170.151 23.2025 170.151 23.619 170.43 23.9165L184.367 37.0646C184.479 37.1835 184.59 37.362 184.59 37.5405C184.59 37.8975 184.311 38.1949 183.977 38.1949H181.022C180.855 38.1949 180.743 38.1355 180.632 38.0165L167.14 25.2253C167.029 25.1063 166.861 25.0468 166.75 25.0468H162.067C161.732 25.0468 161.454 25.3443 161.454 25.7013V37.5405C161.454 37.8975 161.175 38.1949 160.84 38.1949H158.666C158.332 38.1949 158.053 37.8975 158.053 37.5405V25.7608C158.053 25.4038 157.774 25.1063 157.44 25.1063H152.478C152.311 25.1063 152.199 25.1658 152.088 25.2848L138.429 38.076C138.317 38.1949 138.15 38.2544 138.038 38.2544H135.362C135.028 38.2544 134.749 37.957 134.749 37.6C134.749 37.4215 134.805 37.243 134.972 37.1241L148.854 23.976C149.133 23.738 149.133 23.262 148.854 22.9646L135.697 9.93545C135.585 9.81646 135.474 9.63798 135.474 9.4595C135.474 9.10254 135.753 8.80507 136.087 8.80507H138.596C138.763 8.80507 138.93 8.86456 139.042 8.98355L151.976 21.7747C152.088 21.8937 152.255 21.9532 152.422 21.9532H157.328C157.663 21.9532 157.941 21.6557 157.941 21.2987V9.40001C157.941 9.04304 158.22 8.74557 158.555 8.74557H160.729C161.119 8.74557 161.398 9.04304 161.398 9.40001Z" fill="#0E0F28"/>
<path d="M264.759 47H203.936C201.037 47 198.695 44.5013 198.695 41.4076V5.5924C198.695 2.49873 201.037 0 203.936 0H264.759C267.658 0 270 2.49873 270 5.5924V41.3481C270 44.5013 267.658 47 264.759 47Z" fill="#FF1A3B"/>
<path d="M214.249 10.1734V36.8861C214.249 37.6595 213.636 38.3139 212.911 38.3139H212.075C211.35 38.3139 210.737 37.6595 210.737 36.8861V13.0886C210.737 12.3152 210.124 11.6607 209.399 11.6607H207.727C207.002 11.6607 206.389 11.0063 206.389 10.2329V10.1139C206.389 9.3405 207.002 8.68607 207.727 8.68607H212.856C213.636 8.74556 214.249 9.39999 214.249 10.1734Z" fill="white"/>
<path d="M226.57 10.1734V36.8861C226.57 37.6595 225.957 38.3139 225.232 38.3139H224.396C223.671 38.3139 223.058 37.6595 223.058 36.8861V13.0886C223.058 12.3152 222.445 11.6607 221.72 11.6607H220.047C219.323 11.6607 218.709 11.0063 218.709 10.2329V10.1139C218.709 9.3405 219.323 8.68607 220.047 8.68607H225.177C226.013 8.74556 226.57 9.39999 226.57 10.1734Z" fill="white"/>
<path d="M255.784 38.2544H232.982C232.591 38.2544 232.257 38.0759 231.978 37.7785C231.755 37.5405 231.644 37.1835 231.644 36.8861V36.4696C231.644 35.6962 232.257 35.0418 232.982 35.0418H255.784C257.01 35.0418 257.902 34.8038 258.46 34.3278C259.017 33.8519 259.296 32.9595 259.296 31.7696V28.3785C259.296 27.1886 259.017 26.2962 258.46 25.8202C257.902 25.3443 257.01 25.1063 255.784 25.1063H243.574C242.849 25.1063 242.236 24.4519 242.236 23.6785V23.262C242.236 22.4886 242.849 21.8342 243.574 21.8342H255.784C257.01 21.8342 257.902 21.5962 258.46 21.0608C259.017 20.5253 259.296 19.6924 259.296 18.5025V15.2304C259.296 14.0405 259.017 13.1481 258.46 12.6721C257.902 12.1367 257.01 11.8987 255.784 11.8987H232.982C232.257 11.8987 231.644 11.2443 231.644 10.4709V10.1139C231.644 9.81645 231.755 9.45948 231.922 9.22151C232.145 8.92404 232.536 8.68607 232.926 8.68607H255.672C260.299 8.68607 262.641 10.8873 262.641 15.2304V18.0861C262.641 19.9304 262.028 21.3582 260.857 22.3101C260.132 22.9051 260.132 23.9759 260.857 24.5709C262.028 25.5228 262.641 26.9506 262.641 28.7949V31.7101C262.752 36.1126 260.411 38.2544 255.784 38.2544Z" fill="white"/>
</svg>
