<svg width="20" height="20" viewBox="0 0 20 20" fill="none" xmlns="http://www.w3.org/2000/svg">
<path d="M13.5631 11.7661L10.7746 9.67464V5.41441C10.7746 4.98605 10.4283 4.6398 9.99997 4.6398C9.57161 4.6398 9.22536 4.98605 9.22536 5.41441V10.062C9.22536 10.306 9.34001 10.5361 9.5352 10.6817L12.6336 13.0055C12.773 13.11 12.9357 13.1604 13.0976 13.1604C13.3338 13.1604 13.5662 13.0543 13.718 12.8498C13.9752 12.5081 13.9055 12.0225 13.5631 11.7661Z" fill="#FF1A3B"/>
<path d="M10 0C4.48566 0 0 4.48566 0 10C0 15.5143 4.48566 20 10 20C15.5143 20 20 15.5143 20 10C20 4.48566 15.5143 0 10 0ZM10 18.4508C5.34082 18.4508 1.54918 14.6592 1.54918 10C1.54918 5.34082 5.34082 1.54918 10 1.54918C14.66 1.54918 18.4508 5.34082 18.4508 10C18.4508 14.6592 14.6592 18.4508 10 18.4508Z" fill="#FF1A3B"/>
</svg>
