<svg width="20" height="20" viewBox="0 0 20 20" fill="none" xmlns="http://www.w3.org/2000/svg">
<path d="M15.9334 2.45962C12.6541 -0.819657 7.34625 -0.82001 4.06662 2.45962C0.787416 5.73878 0.786906 11.0467 4.06662 14.3264L9.55655 19.8163C9.8015 20.0613 10.1986 20.0612 10.4435 19.8163L15.9334 14.3264C19.2126 11.0472 19.2131 5.73929 15.9334 2.45962ZM15.0464 13.4395L10 18.4859L4.95357 13.4395C2.17097 10.6569 2.17097 6.1292 4.95357 3.34661C7.7362 0.564054 12.2637 0.563976 15.0464 3.34661C17.829 6.12916 17.829 10.6568 15.0464 13.4395Z" fill="#FF1A3B"/>
<path d="M10 4.64191C7.92688 4.64191 6.2489 6.31953 6.2489 8.39297C6.2489 10.4661 7.9266 12.144 10 12.144C12.0732 12.144 13.7511 10.4663 13.7511 8.39297C13.7511 6.31988 12.0735 4.64191 10 4.64191ZM11.7655 10.1584C11.7415 10.1584 11.1503 10.8897 10 10.8897C8.6201 10.8897 7.50326 9.77304 7.50326 8.39297C7.50326 7.01311 8.61995 5.89626 10 5.89626C12.2416 5.89626 13.319 8.60496 11.7655 10.1584Z" fill="#FF1A3B"/>
</svg>
