<svg width="180" height="31" viewBox="0 0 180 31" fill="none" xmlns="http://www.w3.org/2000/svg">
<path d="M0 24.8V6.19999C0 5.96454 0.185835 5.76834 0.408837 5.76834H19.9959C20.2189 5.76834 20.4047 5.96454 20.4047 6.19999V7.45568C20.4047 7.69113 20.2189 7.88733 19.9959 7.88733H2.75036C2.52736 7.88733 2.34152 8.08353 2.34152 8.31897V24.8C2.34152 25.0354 2.15569 25.2316 1.93269 25.2316H0.446005C0.185835 25.2316 0 25.0354 0 24.8Z" fill="#0E0F28"/>
<path d="M17.6915 25.2316H16.242C16.019 25.2316 15.8332 25.0354 15.8332 24.8V24.7215C15.8332 24.643 15.8703 24.5645 15.9075 24.4861L27.2806 5.96454C27.3549 5.84682 27.5036 5.76834 27.6151 5.76834H29.9938C30.1425 5.76834 30.254 5.84682 30.3283 5.96454L41.7386 24.4861C41.7758 24.5645 41.8129 24.643 41.8129 24.7215V24.8C41.8129 25.0354 41.6271 25.2316 41.4041 25.2316H39.6944C39.5457 25.2316 39.4342 25.1532 39.3599 25.0354L36.3494 20.0911C36.275 19.9734 36.1264 19.8949 36.0149 19.8949H21.3711C21.2224 19.8949 21.1109 19.9734 21.0365 20.0911L18.026 25.0354C17.9517 25.1532 17.8402 25.2316 17.6915 25.2316ZM28.3213 8.08353L22.8577 17.0696C22.6719 17.3443 22.8949 17.7367 23.1922 17.7367H34.1194C34.4539 17.7367 34.6397 17.3443 34.4539 17.0696L29.0275 8.08353C28.8788 7.80885 28.5071 7.80885 28.3213 8.08353Z" fill="#0E0F28"/>
<path d="M60.6195 5.76834C63.7043 5.76834 65.2653 7.22024 65.2653 10.0848V12.243C65.2653 15.1076 63.7043 16.5595 60.6195 16.5595H46.7561C46.5331 16.5595 46.3473 16.7557 46.3473 16.9911V24.8C46.3473 25.0354 46.1615 25.2316 45.9385 25.2316H44.4518C44.2288 25.2316 44.043 25.0354 44.043 24.8V6.19999C44.043 5.96454 44.2288 5.76834 44.4518 5.76834H60.6195ZM60.6195 7.88733H46.7561C46.5331 7.88733 46.3473 8.08353 46.3473 8.31897V14.0088C46.3473 14.2443 46.5331 14.4405 46.7561 14.4405H60.6195C61.4371 14.4405 62.0318 14.2835 62.4035 13.9304C62.7751 13.5772 62.961 13.0278 62.961 12.243V10.0848C62.961 9.29999 62.7751 8.71138 62.4035 8.39746C62.0318 8.04429 61.4371 7.88733 60.6195 7.88733Z" fill="#0E0F28"/>
<path d="M65.0052 25.2316H63.5556C63.3326 25.2316 63.1468 25.0354 63.1468 24.8V24.7215C63.1468 24.643 63.184 24.5645 63.2211 24.4861L74.5943 5.96454C74.6686 5.84682 74.8173 5.76834 74.9288 5.76834H77.3075C77.4561 5.76834 77.5676 5.84682 77.642 5.96454L89.0522 24.4861C89.0894 24.5645 89.1266 24.643 89.1266 24.7215V24.8C89.1266 25.0354 88.9407 25.2316 88.7177 25.2316H86.9709C86.8222 25.2316 86.7107 25.1532 86.6364 25.0354L83.6258 20.0519C83.5515 19.9342 83.4028 19.8557 83.2913 19.8557H68.7219C68.5732 19.8557 68.4617 19.9342 68.3874 20.0519L65.3768 24.9962C65.3025 25.1532 65.1538 25.2316 65.0052 25.2316ZM75.6721 8.08353L70.2085 17.0696C70.0227 17.3443 70.2457 17.7367 70.5431 17.7367H81.4702C81.8047 17.7367 81.9905 17.3443 81.8047 17.0696L76.3411 8.08353C76.1924 7.80885 75.8208 7.80885 75.6721 8.08353Z" fill="#0E0F28"/>
<path d="M107.599 6.19999V14.0088C107.599 14.2443 107.784 14.4405 108.007 14.4405H111.39C111.501 14.4405 111.613 14.4013 111.687 14.3228L120.31 5.88606C120.384 5.80758 120.496 5.76834 120.607 5.76834H122.168C122.391 5.76834 122.577 5.96454 122.577 6.19999C122.577 6.31771 122.54 6.43543 122.428 6.51391L113.62 15.1076C113.434 15.3038 113.434 15.5785 113.62 15.7747L122.911 24.4468C122.986 24.5253 123.06 24.643 123.06 24.7607C123.06 24.9962 122.874 25.1924 122.651 25.1924H120.681C120.57 25.1924 120.496 25.1532 120.421 25.0747L111.427 16.638C111.352 16.5595 111.241 16.5202 111.167 16.5202H108.045C107.822 16.5202 107.636 16.7164 107.636 16.9519V24.7607C107.636 24.9962 107.45 25.1924 107.227 25.1924H105.777C105.554 25.1924 105.369 24.9962 105.369 24.7607V16.9911C105.369 16.7557 105.183 16.5595 104.96 16.5595H101.652C101.54 16.5595 101.466 16.5987 101.392 16.6772L92.2858 25.1139C92.2114 25.1924 92.0999 25.2316 92.0256 25.2316H90.2416C90.0186 25.2316 89.8327 25.0354 89.8327 24.8C89.8327 24.6823 89.8699 24.5645 89.9814 24.4861L99.236 15.8139C99.4218 15.6569 99.4218 15.343 99.236 15.1468L90.4646 6.55315C90.3903 6.47467 90.3159 6.35695 90.3159 6.23923C90.3159 6.00378 90.5018 5.80758 90.7248 5.80758H92.3973C92.5088 5.80758 92.6203 5.84682 92.6946 5.9253L101.317 14.362C101.392 14.4405 101.503 14.4797 101.615 14.4797H104.885C105.108 14.4797 105.294 14.2835 105.294 14.0481V6.19999C105.294 5.96454 105.48 5.76834 105.703 5.76834H107.153C107.413 5.76834 107.599 5.96454 107.599 6.19999Z" fill="#0E0F28"/>
<path d="M176.506 31H135.957C134.024 31 132.463 29.3519 132.463 27.3114V3.68861C132.463 1.6481 134.024 0 135.957 0H176.506C178.439 0 180 1.6481 180 3.68861V27.2722C180 29.3519 178.439 31 176.506 31Z" fill="#FF1A3B"/>
<path d="M142.833 6.71014V24.3291C142.833 24.8393 142.424 25.2709 141.941 25.2709H141.383C140.9 25.2709 140.491 24.8393 140.491 24.3291V8.63292C140.491 8.1228 140.083 7.69115 139.599 7.69115H138.484C138.001 7.69115 137.592 7.25951 137.592 6.74938V6.6709C137.592 6.16077 138.001 5.72913 138.484 5.72913H141.904C142.424 5.76837 142.833 6.20001 142.833 6.71014Z" fill="white"/>
<path d="M151.047 6.71014V24.3291C151.047 24.8393 150.638 25.2709 150.155 25.2709H149.597C149.114 25.2709 148.705 24.8393 148.705 24.3291V8.63292C148.705 8.1228 148.297 7.69115 147.813 7.69115H146.698C146.215 7.69115 145.806 7.25951 145.806 6.74938V6.6709C145.806 6.16077 146.215 5.72913 146.698 5.72913H150.118C150.675 5.76837 151.047 6.20001 151.047 6.71014Z" fill="white"/>
<path d="M170.522 25.2317H155.321C155.061 25.2317 154.838 25.1139 154.652 24.9177C154.503 24.7608 154.429 24.5253 154.429 24.3291V24.0544C154.429 23.5443 154.838 23.1127 155.321 23.1127H170.522C171.34 23.1127 171.935 22.9557 172.306 22.6418C172.678 22.3279 172.864 21.7393 172.864 20.9544V18.7177C172.864 17.9329 172.678 17.3443 172.306 17.0304C171.935 16.7165 171.34 16.5595 170.522 16.5595H162.383C161.9 16.5595 161.491 16.1279 161.491 15.6177V15.343C161.491 14.8329 161.9 14.4013 162.383 14.4013H170.522C171.34 14.4013 171.935 14.2443 172.306 13.8912C172.678 13.538 172.864 12.9886 172.864 12.2038V10.0456C172.864 9.26077 172.678 8.67216 172.306 8.35824C171.935 8.00507 171.34 7.84811 170.522 7.84811H155.321C154.838 7.84811 154.429 7.41647 154.429 6.90634V6.6709C154.429 6.4747 154.503 6.23925 154.615 6.08229C154.764 5.88609 155.024 5.72913 155.284 5.72913H170.448C173.533 5.72913 175.094 7.18102 175.094 10.0456V11.9291C175.094 13.1456 174.685 14.0874 173.905 14.7152C173.421 15.1076 173.421 15.8139 173.905 16.2063C174.685 16.8342 175.094 17.776 175.094 18.9924V20.9152C175.168 23.819 173.607 25.2317 170.522 25.2317Z" fill="white"/>
</svg>
