<svg width="20" height="15" viewBox="0 0 20 15" fill="none" xmlns="http://www.w3.org/2000/svg">
<path d="M18.2422 0.46875H1.75781C0.790547 0.46875 0 1.25582 0 2.22656V12.7734C0 13.7445 0.791055 14.5313 1.75781 14.5313H18.2422C19.2095 14.5313 20 13.7442 20 12.7734V2.22656C20 1.25559 19.2091 0.46875 18.2422 0.46875ZM17.9723 1.64063C17.4039 2.21082 10.7283 8.9082 10.4541 9.18336C10.225 9.41313 9.77512 9.41328 9.54594 9.18336L2.02773 1.64063H17.9723ZM1.17188 12.558V2.44199L6.21348 7.5L1.17188 12.558ZM2.02773 13.3594L7.04078 8.33L8.71598 10.0107C9.40246 10.6994 10.5978 10.6991 11.2841 10.0107L12.9593 8.33004L17.9723 13.3594H2.02773ZM18.8281 12.558L13.7865 7.5L18.8281 2.44199V12.558Z" fill="#FF1A3B"/>
</svg>
