<svg width="70" height="70" viewBox="0 0 70 70" fill="none" xmlns="http://www.w3.org/2000/svg">
<path d="M54.1398 29.1259V4.75009C54.1398 2.13081 52.0088 0 49.3896 0H10.7669C8.14765 0 6.01685 2.13081 6.01685 4.75009V55.4036C6.01685 58.0229 8.14765 60.1537 10.7669 60.1537H39.9216V67.8096C39.9216 69.4824 41.7331 70.5436 43.1943 69.7088L49.765 65.9541C57.0222 70.1012 56.6429 69.997 57.4209 69.997C58.6289 69.997 59.6083 69.0162 59.6083 67.8096V52.9043C67.3938 45.4248 64.31 32.4226 54.1398 29.1259ZM10.7669 55.7789C10.56 55.7789 10.3917 55.6106 10.3917 55.4036V4.75009C10.3917 4.54311 10.56 4.37481 10.7669 4.37481H49.3897C49.5967 4.37481 49.765 4.54311 49.765 4.75009V28.4363C41.925 28.4363 35.5468 34.8145 35.5468 42.6544C35.5468 46.6776 37.2268 50.3154 39.9216 52.9043V55.7789H10.7669ZM55.2335 64.0403L50.8502 61.5356C50.1776 61.1513 49.3522 61.1513 48.6796 61.5356L44.2963 64.0403V55.7782C47.7843 57.237 51.7407 57.2389 55.2333 55.7782V64.0403H55.2335ZM49.765 52.4977C44.3373 52.4977 39.9216 48.0821 39.9216 42.6544C39.9216 37.2268 44.3373 32.8111 49.765 32.8111C55.1926 32.8111 59.6083 37.2268 59.6083 42.6544C59.6083 48.0821 55.1926 52.4977 49.765 52.4977Z" fill="#0E0F28"/>
<path d="M48.6691 48.2599C47.8147 48.2599 47.7059 48.0577 44.1768 45.7049C43.1715 45.0347 42.8999 43.6766 43.57 42.6715C44.2402 41.6663 45.5983 41.3947 46.6034 42.0648L48.0646 43.0388L51.2261 38.2967C51.8961 37.2914 53.2545 37.0199 54.2595 37.69C55.2647 38.3601 55.5364 39.7182 54.8662 40.7233L50.4914 47.2856C50.0696 47.9179 49.3759 48.2599 48.6691 48.2599Z" fill="#0E0F28"/>
<path d="M37.7342 15.3118H19.1413C17.9333 15.3118 16.9539 14.3324 16.9539 13.1244C16.9539 11.9164 17.9333 10.937 19.1413 10.937H37.7342C38.9423 10.937 39.9216 11.9164 39.9216 13.1244C39.9216 14.3324 38.9422 15.3118 37.7342 15.3118Z" fill="#0E0F28"/>
<path d="M37.7342 24.0615H19.1413C17.9333 24.0615 16.9539 23.0821 16.9539 21.8741C16.9539 20.6661 17.9333 19.6867 19.1413 19.6867H37.7342C38.9423 19.6867 39.9216 20.6661 39.9216 21.8741C39.9216 23.0821 38.9422 24.0615 37.7342 24.0615Z" fill="#0E0F28"/>
<path d="M30.0783 32.8111H19.1413C17.9333 32.8111 16.9539 31.8317 16.9539 30.6237C16.9539 29.4157 17.9333 28.4363 19.1413 28.4363H30.0783C31.2863 28.4363 32.2657 29.4157 32.2657 30.6237C32.2657 31.8317 31.2863 32.8111 30.0783 32.8111Z" fill="#0E0F28"/>
</svg>
