<svg width="70" height="70" viewBox="0 0 70 70" fill="none" xmlns="http://www.w3.org/2000/svg">
<g clip-path="url(#clip0_515_1681)">
<path d="M27.8304 47.1696L37.4978 18.167C37.8559 17.0926 37.2752 15.9312 36.2007 15.5729C35.1264 15.2149 33.9648 15.7955 33.6066 16.87L23.9392 45.8726C23.5812 46.947 24.1618 48.1085 25.2363 48.4667C25.4514 48.5383 25.6701 48.5723 25.885 48.5723C26.7436 48.5725 27.5438 48.029 27.8304 47.1696Z" fill="#0E0F28"/>
<path d="M42.3193 38.1723C45.7117 38.1723 48.4717 35.4123 48.4717 32.0199C48.4717 28.6275 45.7117 25.8676 42.3193 25.8676C38.9269 25.8676 36.167 28.6275 36.167 32.0199C36.167 35.4123 38.9269 38.1723 42.3193 38.1723ZM42.3193 29.9691C43.4501 29.9691 44.3701 30.8891 44.3701 32.0199C44.3701 33.1507 43.4501 34.0707 42.3193 34.0707C41.1885 34.0707 40.2686 33.1507 40.2686 32.0199C40.2686 30.8891 41.1885 29.9691 42.3193 29.9691Z" fill="#0E0F28"/>
<path d="M19.1172 25.8676C15.7248 25.8676 12.9648 28.6275 12.9648 32.0199C12.9648 35.4123 15.7248 38.1723 19.1172 38.1723C22.5096 38.1723 25.2695 35.4123 25.2695 32.0199C25.2695 28.6275 22.5097 25.8676 19.1172 25.8676ZM19.1172 34.0707C17.9864 34.0707 17.0664 33.1507 17.0664 32.0199C17.0664 30.8891 17.9864 29.9691 19.1172 29.9691C20.248 29.9691 21.168 30.8891 21.168 32.0199C21.168 33.1507 20.2481 34.0707 19.1172 34.0707Z" fill="#0E0F28"/>
<path d="M69.5903 25.4299L62.4389 15.8947L62.718 13.942C62.8092 13.3029 62.5944 12.6582 62.1379 12.2018L57.7875 7.85142L62.1378 3.50103C62.9387 2.70027 62.9387 1.40171 62.1378 0.600815C61.337 -0.199946 60.0384 -0.199946 59.2375 0.600815L54.8873 4.95121L50.5369 0.600815C50.0805 0.144312 49.4358 -0.0697901 48.7967 0.0207177L28.495 2.92093C28.0557 2.98369 27.6487 3.18726 27.3349 3.50103L2.19944 28.6365C-0.732495 31.5683 -0.732495 36.339 2.19944 39.2708L23.4678 60.5393C23.9029 60.9743 24.3792 61.3433 24.8833 61.6492V62.4807C24.8833 66.6269 28.2565 70.0002 32.4028 70.0002H62.4809C66.6272 70.0002 70.0005 66.6269 70.0005 62.4807V26.6604C70.0005 26.2167 69.8565 25.7848 69.5903 25.4299ZM5.09965 36.3705C3.76692 35.0378 3.76692 32.8694 5.09965 31.5367L29.7517 6.88468L48.3616 4.22619L51.9869 7.85156L49.0867 10.7518L47.6366 9.3016C46.8358 8.50083 45.5372 8.50083 44.7363 9.3016C43.9354 10.1024 43.9354 11.4009 44.7363 12.2018L50.5369 18.0024C50.9374 18.4028 51.4622 18.6031 51.9869 18.6031C52.5117 18.6031 53.0367 18.4028 53.437 18.0024C54.2379 17.2016 54.2379 15.9031 53.437 15.1022L51.9868 13.652L54.887 10.7518L58.5124 14.3771L55.8538 32.987L31.2019 57.6391C30.5563 58.2846 29.698 58.6401 28.7849 58.6401C27.8719 58.6401 27.0136 58.2845 26.368 57.6391L5.09965 36.3705ZM65.8989 62.4807C65.8989 64.3653 64.3656 65.8987 62.4809 65.8987H32.4028C30.603 65.8987 29.1248 64.5003 28.9951 62.7331C30.8499 62.6817 32.6895 61.9519 34.1019 60.5393L59.2374 35.4038C59.5512 35.09 59.7548 34.683 59.8175 34.2437L61.6185 21.6369L65.8989 27.344V62.4807Z" fill="#0E0F28"/>
</g>
<defs>
<clipPath id="clip0_515_1681">
<rect width="70" height="70" fill="white"/>
</clipPath>
</defs>
</svg>
