<svg width="70" height="70" viewBox="0 0 70 70" fill="none" xmlns="http://www.w3.org/2000/svg">
<path d="M28.304 65.5433C28.1651 65.5433 28.0248 65.5328 27.8833 65.5109C20.1912 64.3231 13.1367 60.4106 8.01931 54.494C2.84797 48.5151 0 40.8636 0 32.9492C0 24.1482 3.42724 15.874 9.65049 9.65077C15.8737 3.42751 24.1479 0.000274658 32.949 0.000274658C40.9684 0.000274658 48.6968 2.91537 54.7103 8.20853C60.6683 13.4527 64.5347 20.652 65.597 28.4799C65.8 29.9763 64.7517 31.354 63.2553 31.5572C61.7578 31.7602 60.3812 30.7117 60.1781 29.2155C58.3409 15.6777 46.6348 5.46898 32.949 5.46898C17.7963 5.46898 5.46871 17.7965 5.46871 32.9492C5.46871 46.3846 15.4636 58.0596 28.7178 60.1062C30.2102 60.3367 31.2333 61.7332 31.0028 63.2258C30.7943 64.5767 29.6299 65.5433 28.304 65.5433ZM24.7783 45.1235L34.8954 34.8697C35.4003 34.358 35.6833 33.6681 35.6833 32.9492V12.5783C35.6833 11.0681 34.4591 9.84395 32.949 9.84395C31.4388 9.84395 30.2146 11.0681 30.2146 12.5783V31.8273L20.8854 41.2826C19.8247 42.3576 19.8364 44.0889 20.9114 45.1495C21.4442 45.6752 22.1381 45.9374 22.8317 45.9374C23.5377 45.9374 24.2433 45.6656 24.7783 45.1235ZM69.9541 54.9101C70.2281 53.425 69.2464 51.9989 67.7613 51.725C66.2762 51.4511 64.8501 52.4326 64.5761 53.9178C63.4414 60.0675 58.07 64.531 51.8041 64.531C44.6424 64.531 38.8159 58.7045 38.8159 51.5428C38.8159 44.3812 44.6424 38.5547 51.8041 38.5547C52.9946 38.5547 54.1733 38.7152 55.307 39.0318C56.7616 39.438 58.2698 38.588 58.676 37.1336C59.0821 35.6792 58.2322 34.1708 56.7778 33.7646C55.1652 33.3144 53.4919 33.0861 51.8041 33.0861C41.627 33.0861 33.3472 41.3658 33.3472 51.543C33.3472 61.7201 41.627 69.9999 51.8041 69.9999C60.7076 69.9997 68.3407 63.6536 69.9541 54.9101ZM55.1776 56.2891L67.1259 44.4628C68.1993 43.4005 68.2082 41.6692 67.1458 40.5959C66.0835 39.5225 64.3522 39.5136 63.2788 40.576L51.814 51.9239L48.2689 48.3788C47.201 47.3109 45.4697 47.3109 44.4019 48.3788C43.3342 49.4467 43.334 51.1779 44.4019 52.2457L48.428 56.2718C49.3593 57.2031 50.5854 57.669 51.8118 57.669C53.0296 57.669 54.2481 57.2094 55.1776 56.2891Z" fill="#0E0F28"/>
</svg>
