<svg width="40" height="34" fill="none" xmlns="http://www.w3.org/2000/svg"><path d="M38.382 8.11l-6.724-6.724a2.76 2.76 0 00-3.61-.27l-3.633 2.677a.563.563 0 00-.064.85l.876.876-3.846 3.845h-2.763l-3.845-3.846.875-.875a.563.563 0 00-.064-.85l-3.632-2.678a2.76 2.76 0 00-3.61.272L7.277 2.45a.562.562 0 00.795.796l1.065-1.065a1.641 1.641 0 012.148-.162l1.208.891-9.35 9.35-.891-1.207a1.643 1.643 0 01.161-2.15l4.069-4.068a.562.562 0 00-.795-.795L1.618 8.11a2.762 2.762 0 00-.272 3.61l2.679 3.633a.562.562 0 00.85.064l.875-.876.653.653a6.281 6.281 0 00-2.187 4.758 6.288 6.288 0 005.072 6.16 4.81 4.81 0 003.096 3.625v2.02c0 .924.752 1.675 1.675 1.675.727 0 1.346-.465 1.578-1.113h.805a1.677 1.677 0 001.577 1.113c.727 0 1.347-.465 1.578-1.113h.806a1.678 1.678 0 001.577 1.113c.726 0 1.346-.465 1.578-1.113h.805a1.678 1.678 0 001.578 1.113c.923 0 1.675-.752 1.675-1.675v-4.421a4.08 4.08 0 002.284-1.118 6.247 6.247 0 003.137-1.078.562.562 0 00-.634-.928 5.128 5.128 0 01-1.61.73c.18-.405.296-.845.336-1.306a4.016 4.016 0 002.403-3.684 4.015 4.015 0 00-1.533-3.16l.8-.8a5.155 5.155 0 011.86 3.96c0 1.005-.291 1.98-.842 2.818a.562.562 0 00.94.617 6.243 6.243 0 001.026-3.435c0-1.836-.807-3.57-2.187-4.757l.654-.654.875.876a.563.563 0 00.85-.064l2.678-3.632a2.76 2.76 0 00-.271-3.611zm-9.067 5.194c0-.141.055-.274.155-.374l1.584-1.584.748.747-1.585 1.585a.525.525 0 01-.747 0 .525.525 0 01-.155-.374zm-1.392-5.09l.5.5-1.585 1.585a.525.525 0 01-.748 0 .53.53 0 010-.748l1.585-1.584.248.247zm-1.9-1.9l.857.857-1.585 1.585a1.655 1.655 0 001.17 2.822c.44 0 .856-.172 1.168-.484l1.585-1.585 1.04 1.042-1.584 1.584a1.643 1.643 0 00-.484 1.169c0 .441.172.857.484 1.169.313.312.728.484 1.17.484.44 0 .856-.172 1.168-.484l1.585-1.585.857.858-3.612 3.612-7.432-7.432 3.612-3.612zm-2.368 21.062h.61v3.818h-.61v-3.818zm-3.86-1.125l3.17-3.112a4.08 4.08 0 001.275 3.112h-4.445zm-4.06 3.44c.21-.082.414-.179.61-.29v1.793h-.61v-1.503zm3.96-2.315h.61v3.818h-.61v-3.818zm-.923-1.697a4.8 4.8 0 00-5.081-5.241l3.135-3.066A3.186 3.186 0 0020 20.327a3.186 3.186 0 003.174-3.406l3.226 2.323a4.085 4.085 0 00-2.237 1.146v-.004l-5.391 5.293zm-9.968-8.084l.86.86 1.055 3.274c-.33.31-.616.665-.848 1.057a2.927 2.927 0 01-2.279-2.834c0-.944.456-1.815 1.212-2.357zM20 15.085a2.06 2.06 0 012.058 2.059A2.06 2.06 0 0120 19.202a2.06 2.06 0 01-2.058-2.058A2.06 2.06 0 0120 15.086zm8.788 4.493S21.989 14.66 21.91 14.6a3.17 3.17 0 00-4.06.2l-6.222 6.082-.83-2.574 7.82-7.82h2.764l7.82 7.82-.41 1.272a.114.114 0 01-.004-.002zM8.946 11.346l1.584 1.584a.525.525 0 010 .748.525.525 0 01-.747 0l-1.585-1.585.748-.747zm-4.404 2.813l-.724-.982 9.59-9.59.983.723-9.849 9.85zm2.861-1.27l1.585 1.584c.312.312.727.484 1.168.484.442 0 .857-.172 1.17-.484.312-.312.484-.728.484-1.169a1.64 1.64 0 00-.485-1.169l-1.584-1.584.013-.014 1.028-1.028 1.585 1.585c.312.312.727.484 1.169.484a1.655 1.655 0 001.169-2.822L13.12 7.17l.858-.857 3.612 3.612-7.432 7.432-3.612-3.612.857-.857zm4.922-4.922l1.584 1.584a.53.53 0 01-.747.748l-1.584-1.585.747-.747zM5.341 19.952c0-1.535.688-2.984 1.86-3.96l.8.8a4.015 4.015 0 00-1.534 3.16c0 1.01.377 1.976 1.061 2.721.513.56 1.165.957 1.882 1.157a4.764 4.764 0 00-.198 1.114 5.162 5.162 0 01-3.87-4.992zm4.987 5.27A3.675 3.675 0 0114 21.552a3.675 3.675 0 013.67 3.67 3.675 3.675 0 01-3.67 3.67 3.675 3.675 0 01-3.67-3.67zm3.731 7.085a.55.55 0 01-.55-.55v-1.765a4.836 4.836 0 001.1-.015v1.78a.55.55 0 01-.55.55zm3.96 0a.55.55 0 01-.55-.55v-3.223l1.101-1.08v4.303c0 .303-.247.55-.55.55zm3.961 0a.55.55 0 01-.55-.55v-4.381h1.1v4.38a.55.55 0 01-.55.551zm3.96 0a.55.55 0 01-.55-.55v-4.381h1.1v4.38a.55.55 0 01-.55.551zm1.113-6.056a2.97 2.97 0 01-2.967-2.968 2.97 2.97 0 012.967-2.967 2.97 2.97 0 012.967 2.967 2.97 2.97 0 01-2.967 2.968zm5.354-6.299a2.894 2.894 0 01-1.357 2.457 4.093 4.093 0 00-1.284-2.185l.57-1.768.86-.86a2.895 2.895 0 011.211 2.356zm3.05-5.793L25.61 4.31l.982-.724 9.59 9.591-.723.982zm2.29-3.106l-.89 1.209-9.35-9.35 1.208-.892a1.642 1.642 0 012.148.162l6.723 6.723c.583.582.65 1.486.162 2.148z" fill="#fff"/><path d="M15.696 25.222A1.7 1.7 0 0014 23.525a1.7 1.7 0 00-1.697 1.697A1.7 1.7 0 0014 26.919a1.7 1.7 0 001.697-1.697zm-2.27 0a.573.573 0 111.147.001.573.573 0 01-1.147-.001zm13.627-3.636a1.7 1.7 0 00-1.697 1.697 1.7 1.7 0 001.697 1.698 1.7 1.7 0 001.697-1.698 1.7 1.7 0 00-1.697-1.697zm0 2.27a.573.573 0 11.001-1.147.573.573 0 010 1.147z" fill="#fff"/></svg>