<svg width="40" height="40" fill="none" xmlns="http://www.w3.org/2000/svg"><path d="M26.943 25.12H13.055a1.375 1.375 0 00-.88 2.432l2.075 1.728c.247.207.559.32.88.32h9.738c.322 0 .634-.113.88-.32l2.075-1.728a1.375 1.375 0 00-.88-2.432zm.064 1.45l-2.075 1.727a.098.098 0 01-.063.022h-9.737a.095.095 0 01-.064-.023l-2.075-1.728a.085.085 0 01-.029-.106.084.084 0 01.09-.064h13.888a.084.084 0 01.09.064.085.085 0 01-.028.107h.003zm4.532-1.13l-2.082 1.728a1.373 1.373 0 00.88 2.432h5.023a1.28 1.28 0 001.28-1.28V26.4a1.28 1.28 0 00-1.28-1.28h-2.94a1.382 1.382 0 00-.881.32zm3.821.96v1.92h-5.023a.085.085 0 01-.09-.064.081.081 0 01.029-.103l2.082-1.732a.094.094 0 01.064-.022l2.938.001zm-26.899-.96a1.38 1.38 0 00-.877-.32H4.64a1.28 1.28 0 00-1.28 1.28v1.92c0 .707.573 1.28 1.28 1.28h5.021a1.374 1.374 0 00.881-2.432l-2.08-1.728zm1.292 2.816a.084.084 0 01-.09.064H4.64V26.4h2.944c.023 0 .046.007.064.023l2.083 1.731c.03.024.04.067.022.102z" fill="#fff"/><path fill-rule="evenodd" clip-rule="evenodd" d="M9.12 31.52H4.64a.64.64 0 000 1.28h4.48a.64.64 0 000-1.28zm26.24 0h-4.48a.64.64 0 000 1.28h4.48a.64.64 0 000-1.28zm-9.6 0H14.24a.64.64 0 000 1.28h11.52a.64.64 0 000-1.28z" fill="#fff"/><path d="M39.2 19.36c0-1.06-.86-1.92-1.92-1.92H36a1.91 1.91 0 00-1.448.673l-1.202-3.599a3.193 3.193 0 00-1.842-1.957c0-.08.012-.157.012-.237C31.52 5.958 26.362.8 20 .8 13.638.8 8.48 5.958 8.48 12.32c0 .08.01.157.012.237A3.191 3.191 0 006.65 14.51l-1.202 3.602A1.91 1.91 0 004 17.44H2.72a1.92 1.92 0 100 3.84h1.015l-2.368 2.368c-.364.36-.568.851-.567 1.363v8.429a1.92 1.92 0 001.28 1.802v2.038c0 1.06.86 1.92 1.92 1.92h4.48c1.06 0 1.92-.86 1.92-1.92v-1.92h19.2v1.92c0 1.06.86 1.92 1.92 1.92H36c1.06 0 1.92-.86 1.92-1.92v-2.038a1.92 1.92 0 001.28-1.802v-8.429a1.912 1.912 0 00-.565-1.361l-2.368-2.368h1.013a1.92 1.92 0 001.92-1.922zm-7.065-4.443L33.832 20h-5.27a11.463 11.463 0 002.83-6.051 1.9 1.9 0 01.743.968zM20 2.08c5.655 0 10.24 4.585 10.24 10.24S25.655 22.56 20 22.56 9.76 17.976 9.76 12.32C9.767 6.667 14.347 2.087 20 2.08zM7.866 14.913a1.89 1.89 0 01.742-.964A11.463 11.463 0 0011.438 20h-5.27l1.698-5.087zM2.72 20a.64.64 0 010-1.28H4a.64.64 0 01.64.64V20H2.72zm6.4 17.28a.64.64 0 01-.64.64H4a.64.64 0 01-.64-.64v-1.92h5.76v1.92zm27.52 0a.64.64 0 01-.64.64h-4.48a.64.64 0 01-.64-.64v-1.92h5.76v1.92zm1.088-12.725a.64.64 0 01.192.456v8.429a.64.64 0 01-.64.64H2.72a.64.64 0 01-.64-.64v-8.429a.64.64 0 01.192-.456l3.273-3.275h7.232a11.475 11.475 0 0014.45 0h7.232l3.269 3.275zM35.36 20v-.64a.64.64 0 01.64-.64h1.28a.64.64 0 110 1.28h-1.92z" fill="#fff"/><path d="M14.304 11.99c.34 0 .665-.134.905-.375l.336-.336 1.393 1.393-.32.32a3.32 3.32 0 00-3.658 2.931 1.136 1.136 0 001.664 1.058c.418-.223.576-.064.677.044.101.109.261.256.042.663a1.13 1.13 0 00.99 1.672h.038a2.862 2.862 0 001.504-.536 3.368 3.368 0 001.442-3.112l.331-.332 3.605 3.605c.501.5 1.314.5 1.815 0l.902-.905a1.28 1.28 0 000-1.807l-3.605-3.605 1.012-1.012a3.159 3.159 0 002.635-.907 3.141 3.141 0 001.002-2.025v-.005a1.135 1.135 0 00-1.664-1.058c-.418.223-.58.06-.68-.041-.1-.1-.263-.264-.034-.675a1.14 1.14 0 00-.044-1.135 1.084 1.084 0 00-.987-.53 2.863 2.863 0 00-1.505.536 3.364 3.364 0 00-1.437 3.13l-1.009 1.01-1.392-1.393.568-.568a1.28 1.28 0 00-.595-2.147l-2.172-.543a1.287 1.287 0 00-1.216.337l-2.805 2.805a1.28 1.28 0 000 1.81l1.358 1.359c.24.24.565.375.904.374zm10.758 5.184l-.902.906-3.606-3.603.905-.906 3.603 3.603zm-3.259-7.557a.64.64 0 00.17-.603 2.083 2.083 0 01.856-2.145c.168-.12.355-.21.554-.267a1.767 1.767 0 002.31 2.304 2.222 2.222 0 01-.592.939 1.845 1.845 0 01-1.781.496.64.64 0 00-.61.167l-4.531 4.532a.64.64 0 00-.171.597 2.089 2.089 0 01-.861 2.132 1.83 1.83 0 01-.556.267 1.69 1.69 0 00-.384-1.916 1.667 1.667 0 00-1.216-.533c-.244.002-.486.05-.712.142.114-.358.318-.68.591-.938a1.848 1.848 0 011.802-.487.64.64 0 00.613-.167l4.518-4.52zm-3.054 1.244l-.906.906-1.392-1.393.906-.906 1.392 1.393zm-2.997-4.314l2.176.54-3.624 3.623-1.358-1.357 2.806-2.806z" fill="#fff"/></svg>