<svg width="40" height="43" fill="none" xmlns="http://www.w3.org/2000/svg"><path fill-rule="evenodd" clip-rule="evenodd" d="M15.127 6.356c0-1.153.934-2.088 2.087-2.088h2.922a2.087 2.087 0 110 4.175h-2.922a2.087 2.087 0 01-2.087-2.087zm2.087-.418a.417.417 0 100 .835h2.922a.417.417 0 100-.835h-2.922z" fill="#fff"/><path fill-rule="evenodd" clip-rule="evenodd" d="M9.244 4.483c.044-.083.096-.164.155-.243C10.23 3.123 13.01.094 18.58.093h.005c5.135.002 8.326 2.889 9.372 4.008a2.324 2.324 0 01.602 1.44l.204 3.528a2.53 2.53 0 01-.075.781l.138 4.18a2.513 2.513 0 01-.998 2.094.828.828 0 01.144.468v2.327a3.6 3.6 0 01-1.237 2.716.715.715 0 00-.21.35c-.232.83-.83 2.625-2.04 4.229a8.787 8.787 0 01-1.409 1.487.835.835 0 011.13.781v2.358l7.197 1.414.017.003v-4.32a4.273 4.273 0 01.864-7.746c.87-.28 1.57.44 1.57 1.17v2.252h.811v-2.251c0-.73.699-1.452 1.57-1.172a4.273 4.273 0 01.864 7.746v11.309c0 .349-.064.686-.18.997a2.506 2.506 0 01-2.46 2.017H3.308A2.505 2.505 0 01.95 38.906l1.044-2.905a5.845 5.845 0 014.354-3.754l7.026-1.404v-2.361c0-.349.213-.647.517-.772-.544-.45-1-.963-1.378-1.498-1.146-1.618-1.59-3.43-1.747-4.279a.718.718 0 00-.181-.376 3.551 3.551 0 01-1.022-2.492v-2.473c0-.147.038-.285.105-.405a2.518 2.518 0 01-1.104-2.214l.2-4.037c-.093-.3-.13-.624-.1-.964l.312-3.591a2.2 2.2 0 01.268-.898zM35.43 35.23v-7.529c0-.516.31-.931.7-1.135a2.601 2.601 0 00.206-4.497v1.962c0 .692-.56 1.252-1.252 1.252h-1.647c-.692 0-1.252-.56-1.252-1.252v-1.962a2.601 2.601 0 00.207 4.497c.39.203.699.62.699 1.135v5.165a5.849 5.849 0 012.34 2.364zM10.354 11.59l-.122 2.465c-.028.569.532 1.046 1.134.898 1.972-.483 4.918-1.1 7.213-1.108 2.374-.009 5.434.63 7.448 1.122.594.146 1.15-.32 1.13-.883l-.08-2.476a2.58 2.58 0 01-1.509.087c-2.005-.489-4.854-1.07-6.983-1.062-2.046.007-4.769.562-6.729 1.04a2.578 2.578 0 01-1.502-.084zm16.444-6.266a.655.655 0 01.081.31l.13 3.955a.925.925 0 01-1.045.484c-2.013-.491-5.035-1.118-7.385-1.11-2.26.008-5.15.607-7.119 1.088a.925.925 0 01-1.01-.418l.204-4.112a.586.586 0 01.053-.233.333.333 0 01.014-.02c.595-.811 2.836-3.38 7.52-3.5a13.329 13.329 0 01.713.001c4.282.135 6.94 2.569 7.797 3.493a.442.442 0 01.047.062zM11.233 16.648v2.417c0 .494.194.968.541 1.32.35.356.552.803.634 1.244.138.747.524 2.286 1.468 3.618.92 1.299 2.358 2.4 4.706 2.4 2.102 0 3.555-1.092 4.57-2.44 1.03-1.363 1.558-2.929 1.766-3.671.12-.428.356-.843.722-1.161a1.93 1.93 0 00.663-1.456v-2.256a2.581 2.581 0 01-.673-.073c-2.007-.491-4.893-1.083-7.045-1.075-2.08.007-4.857.578-6.821 1.06a2.583 2.583 0 01-.531.073zm3.81 11.835v2.659c.931.72 2.303 1.12 3.747 1.12 1.445 0 2.816-.4 3.747-1.12v-2.66A.83.83 0 0122.69 28a6.863 6.863 0 01-4.108 1.317c-1.406 0-2.574-.322-3.538-.834zM8.865 40.589h20.04v-7.124l-1.67-.329v1.19a2.505 2.505 0 01-2.506 2.506H13.04a2.505 2.505 0 01-2.505-2.505v-1.214l-1.67.334v7.142zm-1.67-6.808v6.808H3.307a.835.835 0 01-.786-1.118l1.045-2.905a4.175 4.175 0 013.11-2.681l.518-.104zm23.38.011v6.797h3.887a.835.835 0 00.785-1.118l-1.04-2.894a4.174 4.174 0 00-3.124-2.685l-.509-.1zm-16.6-1.367l-1.77.354v1.548c0 .46.374.835.835.835h11.69a.835.835 0 00.835-.835v-1.518l-1.956-.385c-1.305 1.034-3.099 1.508-4.818 1.508-1.718 0-3.51-.474-4.816-1.507z" fill="#fff"/></svg>