<svg width="40" height="38" fill="none" xmlns="http://www.w3.org/2000/svg"><path d="M7.344 37.382c-1.206 0-2.399-.427-3.314-1.29a4.892 4.892 0 01-1.548-3.513 4.89 4.89 0 011.44-3.556l8.237-8.25a.82.82 0 111.16 1.162l-8.238 8.25a3.259 3.259 0 00-.96 2.37 3.26 3.26 0 001.033 2.342c1.276 1.204 3.377 1.117 4.685-.192l1.828-1.83a.82.82 0 111.16 1.162l-1.828 1.83a5.172 5.172 0 01-3.655 1.515zm21.823-16.624l-.117-.001a.82.82 0 01.01-1.642h.107a8.35 8.35 0 003.176-.619 8.062 8.062 0 001.813-1.024c2.733-2.051 3.952-5.482 3.17-8.731l-4.303 4.31c-.716.716-1.963.716-2.679 0l-3.518-3.523a1.884 1.884 0 01-.555-1.34c0-.508.197-.983.555-1.342l4.304-4.311a8.324 8.324 0 00-7.901 2.23 8.4 8.4 0 00-2.453 5.668c-.016.453-.4.827-.847.793a.82.82 0 01-.792-.847c.04-1.194.288-2.36.74-3.468a9.95 9.95 0 012.193-3.307 9.963 9.963 0 0110.332-2.406 1.177 1.177 0 01.441 1.945l-4.857 4.865a.25.25 0 00-.074.18.25.25 0 00.074.18l3.517 3.523c.1.1.262.1.361 0l4.858-4.865a1.18 1.18 0 011.103-.315c.396.092.71.376.839.759 1.404 4.134-.012 8.681-3.523 11.317-.667.5-1.4.915-2.178 1.23-1.202.49-2.479.74-3.796.74z" fill="#fff"/><path d="M6.941 33.915a.95.95 0 100-1.902.95.95 0 000 1.902zM1.62 18.09a.821.821 0 01-.58-1.402l7.836-7.845a.82.82 0 111.16 1.161L2.2 17.85c-.16.16-.37.24-.58.24z" fill="#fff"/><path d="M20.043 23.048c-.81 0-1.62-.309-2.238-.926a3.175 3.175 0 010-4.48l2.364-2.368a.82.82 0 111.16 1.161l-2.364 2.367a1.525 1.525 0 102.156 2.16l3.53-3.534a.533.533 0 000-.75l-6.573-6.583a.532.532 0 00-.569-.118l-.512.2a5.668 5.668 0 01-5.973-1.163l-.988.99a.821.821 0 01-1.16-1.161l1.567-1.568a.82.82 0 011.16 0l.47.47a4.031 4.031 0 004.327.905l.511-.202a2.168 2.168 0 012.327.486l6.573 6.582a2.177 2.177 0 010 3.072l-3.53 3.534a3.16 3.16 0 01-2.238.926zm-12.973 4.8a.821.821 0 01-.702-.396c-2.042-3.383-2.649-6.179-2.8-7.072L1.04 17.85a.821.821 0 011.16-1.161l2.717 2.721c.13.131.214.302.235.485.003.029.382 3.002 2.619 6.707a.82.82 0 01-.7 1.246z" fill="#fff"/><path d="M25.83 26.83c-.81 0-1.62-.309-2.236-.925l-3.09-3.096a.821.821 0 011.159-1.16l3.09 3.094a1.525 1.525 0 102.156-2.158l-2.875-2.88a.821.821 0 011.16-1.16l2.875 2.879a3.175 3.175 0 010 4.48 3.158 3.158 0 01-2.24.926z" fill="#fff"/><path d="M23.168 30.805c-.846 0-1.64-.33-2.236-.929l-2.718-2.72a3.15 3.15 0 01-.926-2.24c0-.846.329-1.643.926-2.24 1.196-1.199 3.28-1.197 4.474 0l2.718 2.72a3.176 3.176 0 010 4.48 3.145 3.145 0 01-2.238.928zm-2.717-7.416c-.408 0-.79.158-1.078.447a1.519 1.519 0 00-.447 1.08c0 .407.159.79.447 1.08l2.717 2.72c.577.578 1.58.576 2.156 0a1.53 1.53 0 000-2.159l-2.718-2.72a1.51 1.51 0 00-1.077-.448z" fill="#fff"/><path d="M19.092 33.36c-.81 0-1.62-.308-2.237-.925l-2.718-2.72a3.15 3.15 0 01-.926-2.241c0-.846.329-1.642.926-2.24 1.196-1.198 3.28-1.198 4.475 0l2.717 2.72c.598.598.927 1.394.927 2.24 0 .847-.329 1.642-.927 2.24a3.153 3.153 0 01-2.237.926zm-2.717-7.414c-.408 0-.79.159-1.078.448a1.519 1.519 0 00-.447 1.079c0 .408.159.791.447 1.08l2.717 2.72a1.525 1.525 0 102.156-2.159l-2.717-2.72a1.518 1.518 0 00-1.078-.448z" fill="#fff"/><path d="M14.714 35.57c-.844 0-1.64-.33-2.237-.93L9.76 31.92a3.15 3.15 0 01-.926-2.24c0-.846.328-1.642.926-2.24 1.196-1.198 3.28-1.198 4.474 0l2.717 2.72a3.15 3.15 0 01.927 2.241c0 .847-.329 1.642-.927 2.24-.597.6-1.392.928-2.237.928zm-2.718-7.417c-.407 0-.79.159-1.077.448a1.519 1.519 0 00-.447 1.079c0 .408.159.791.447 1.08l2.717 2.72c.576.577 1.58.577 2.156 0 .288-.288.447-.671.447-1.079a1.52 1.52 0 00-.447-1.08l-2.717-2.72a1.513 1.513 0 00-1.079-.448zm3.826-7.916h-.057c-2.517-.033-4.677-2.28-4.768-2.375a.822.822 0 011.188-1.133c.018.018 1.785 1.845 3.606 1.865.723.017 1.325-.263 1.888-.828a.82.82 0 111.16 1.16c-.867.87-1.882 1.31-3.017 1.31zM11.023 8.674a.823.823 0 01-.582-.238.848.848 0 01-.238-.583c0-.213.09-.426.238-.574.312-.312.86-.312 1.164 0a.828.828 0 01.238.574c0 .222-.09.427-.238.583a.823.823 0 01-.582.238z" fill="#fff"/></svg>