<svg width="40" height="30" fill="none" xmlns="http://www.w3.org/2000/svg"><path d="M3.715 6.92h5.933a.562.562 0 100-1.126H3.715a.562.562 0 100 1.125zm5.729 2.707H7.101a.562.562 0 100 1.125h2.343a.562.562 0 100-1.125zm-8.081 3.901H7.1a.562.562 0 100-1.125H1.362a.562.562 0 100 1.125zM10.21 23.5a.563.563 0 00-.562-.562H3.715a.562.562 0 100 1.125h5.933c.31 0 .562-.252.562-.563zm-.766-4.395H7.101a.562.562 0 100 1.125h2.343a.563.563 0 100-1.125zm-1.781-2.213a.562.562 0 00-.562-.563H1.362a.562.562 0 100 1.125h5.739c.31 0 .562-.252.562-.562zm17.102-8.726c.31 0 .562-.252.562-.563v-.858a.562.562 0 10-1.125 0v.858c0 .311.252.563.563.563zm6.185.578a.563.563 0 00-.796 0l-.607.607a.562.562 0 10.795.796l.607-.607a.563.563 0 000-.796zm1.14 5.622a.562.562 0 100 1.125h.858a.562.562 0 100-1.125h-.858zm-1.748 5.344a.563.563 0 00-.795.796l.607.607a.563.563 0 00.795-.795l-.607-.607zm-6.14 2.544v.858a.562.562 0 101.125 0v-.858a.562.562 0 10-1.125 0zm-5.015-2.544l-.607.608a.562.562 0 10.796.795l.607-.607a.562.562 0 10-.796-.795zm-2.607-5.344a.563.563 0 000 1.125h.86a.562.562 0 100-1.125h-.86zm3.403-5.015l-.608-.607a.563.563 0 00-.795.796l.607.607a.563.563 0 00.796-.796zm7.807 5.578a.562.562 0 00-.563-.563h-1.9V10.19a.562.562 0 10-1.125 0v4.739c0 .31.252.562.563.562h2.462c.31 0 .562-.252.562-.562z" fill="#fff"/><path d="M35.43 14.836a.562.562 0 00.528-.596C35.6 8.338 30.683 3.714 24.765 3.714c-6.184 0-11.215 5.03-11.215 11.215 0 6.184 5.03 11.215 11.215 11.215 5.54 0 10.267-4.06 11.09-9.537a.563.563 0 00-1.113-.167c-.739 4.921-4.988 8.579-9.977 8.579-5.564 0-10.09-4.526-10.09-10.09s4.526-10.09 10.09-10.09c5.325 0 9.748 4.16 10.07 9.47.019.31.285.545.596.527z" fill="#fff"/><path d="M24.765.493c-1.979 0-3.918.41-5.702 1.179H9.14a.562.562 0 100 1.125h7.808a14.42 14.42 0 00-2.885 2.445.563.563 0 00.834.755 13.339 13.339 0 019.869-4.379c7.339 0 13.31 5.971 13.31 13.31 0 7.34-5.971 13.311-13.31 13.311-7.34 0-13.31-5.97-13.31-13.31 0-2.57.733-5.065 2.122-7.214a.562.562 0 10-.945-.61 14.382 14.382 0 00-2.303 7.824c0 5.082 2.64 9.56 6.622 12.132H9.139a.562.562 0 100 1.125h9.916a14.353 14.353 0 005.71 1.178c7.96 0 14.435-6.476 14.435-14.435C39.2 6.969 32.724.493 24.765.493z" fill="#fff"/></svg>