<svg width="40" height="40" fill="none" xmlns="http://www.w3.org/2000/svg"><path d="M20.95 19.051a.75.75 0 10-1.062 1.06.75.75 0 001.062-1.06zm9.545-9.546a3.748 3.748 0 00-5.303 0 3.755 3.755 0 000 5.304 3.755 3.755 0 005.303 0 3.748 3.748 0 000-5.304zm-1.06 4.243a2.253 2.253 0 01-3.183 0 2.249 2.249 0 113.182 0z" fill="#fff"/><path d="M38.98 1.02a.747.747 0 00-.557-.22c-.17.007-4.207.169-9.007 1.865-3.846 1.358-7.052 3.303-9.528 5.78a28.496 28.496 0 00-1.612 1.754c-2.448-1.442-4.41-.99-5.65-.326C9.768 11.402 8 15.552 8 18.52a.75.75 0 001.28.53c1.507-1.505 3.365-1.411 3.972-1.331l.262.262a26.379 26.379 0 00-1.238 3.643c-.11.43-.073.886.09 1.303a7.103 7.103 0 00-2.025 1.428c-1.93 1.93-2.322 6.635-2.338 6.835a.75.75 0 00.806.806c.2-.015 4.905-.407 6.836-2.338a7.106 7.106 0 001.427-2.025c.441.174.895.195 1.304.09a26.376 26.376 0 003.642-1.238l.263.263c.08.607.174 2.464-1.333 3.97a.75.75 0 00.53 1.28c2.97 0 7.12-1.767 8.648-4.623.664-1.24 1.116-3.203-.326-5.651.611-.517 1.2-1.057 1.755-1.612 2.476-2.476 4.42-5.682 5.779-9.528 1.696-4.8 1.858-8.838 1.864-9.007a.75.75 0 00-.219-.557zM9.678 16.907c.466-2.254 1.82-4.729 3.655-5.711 1.227-.657 2.568-.592 3.994.188a30.335 30.335 0 00-3.151 5.137c-.011-.007-.146-.177-.397-.234-.103-.023-2.088-.45-4.1.62zm4.907 11.69c-1.031 1.032-3.45 1.576-4.98 1.798.223-1.53.767-3.948 1.798-4.98.577-.577 1.247-1.015 1.92-1.262l2.524 2.524c-.247.673-.684 1.343-1.262 1.92zm3.42-2.327c-.218.056-.47-.026-.656-.212l-1.47-1.47-1.936-1.936c-.187-.188-.269-.439-.213-.656.24-.935.554-1.895.936-2.864l6.202 6.202c-.969.382-1.929.696-2.864.936zm10.8.397c-.983 1.836-3.457 3.19-5.712 3.655.719-1.353.878-3.075.615-4.119-.061-.243-.22-.364-.228-.379a30.336 30.336 0 005.136-3.151c.78 1.426.845 2.767.189 3.994zm1.69-7.616a27.222 27.222 0 01-2.163 1.94 28.817 28.817 0 01-5.978 3.707l-7.052-7.051a28.806 28.806 0 013.706-5.979 27.218 27.218 0 011.94-2.163c2.223-2.222 5.09-3.99 8.526-5.263l6.285 6.284c-1.273 3.436-3.041 6.303-5.264 8.525zm5.803-10.107l-5.242-5.242a33.72 33.72 0 016.581-1.339 33.727 33.727 0 01-1.339 6.581z" fill="#fff"/><path d="M18.828 31.779a.75.75 0 00-1.061 0L15.646 33.9a.75.75 0 001.06 1.06l2.122-2.122a.75.75 0 000-1.06zM8.221 21.172a.75.75 0 00-1.06 0l-2.122 2.121a.75.75 0 101.06 1.061l2.122-2.12a.75.75 0 000-1.062zm5.304 11.668a.75.75 0 00-1.061 0l-5.08 5.08a.75.75 0 101.06 1.06l5.08-5.08a.75.75 0 000-1.06zm-6 0a.75.75 0 00-1.061 0l-5.08 5.08a.75.75 0 101.06 1.06l5.08-5.08a.75.75 0 000-1.06zm-.365-6.364a.75.75 0 00-1.06 0l-5.08 5.08a.75.75 0 101.06 1.06l5.08-5.08a.75.75 0 000-1.06zM24.131 15.87a.75.75 0 00-1.06 0l-1.061 1.06a.75.75 0 001.06 1.06l1.061-1.06a.75.75 0 000-1.06z" fill="#fff"/></svg>