<svg width="666" height="339" fill="none" xmlns="http://www.w3.org/2000/svg"><path fill-rule="evenodd" clip-rule="evenodd" d="M402.582 208.506c4.97 26.241-8.52 48.226-19.88 68.793-12.781 19.858-33.372 36.17-58.932 34.042-56.092-.709-111.474-9.22-162.595-24.822-2.13-.709-4.97-2.128-5.68-4.255-.71-2.837.71-5.674 2.84-7.802 46.861-37.587 102.243-55.318 156.914-73.757 20.591-5.674 42.602-12.056 65.322-9.22 9.231 1.419 18.461 8.511 22.011 17.021zM594.998 96.452c26.271 21.276 49.701 51.063 41.891 86.523-12.78 52.481-70.292 80.14-115.733 97.87-24.851 8.511-49.702 17.021-76.683 19.149-1.42 0-4.26 0-4.97-2.128l.71-2.837c38.341-43.261 67.452-91.487 93.013-141.131 12.07-21.986 22.721-44.68 32.661-67.375 1.42-1.418 2.84-2.837 4.97-2.837 9.941.71 16.331 7.801 24.141 12.766zM226.497 41.134l-.71 2.837c-55.382 63.119-92.303 136.167-127.094 209.215-7.1 6.383-13.49-2.127-19.17-4.964-31.241-19.858-58.932-52.481-51.122-91.488 12.78-50.353 65.322-78.012 108.633-95.742 25.561-9.93 52.542-17.73 80.943-21.986 2.84 0 7.1-.709 8.52 2.128zm275.488 9.929c2.84 1.418 7.1 2.127 8.52 5.673 1.42 3.547-1.42 5.674-3.55 8.51-43.311 34.043-93.013 53.191-144.134 69.503-26.271 6.383-52.542 17.73-80.943 11.347-7.1-1.418-12.78-6.383-17.04-12.765-7.1-19.858 2.84-40.425 10.65-58.155 11.361-21.986 31.241-47.517 58.222-47.517 59.642 0 115.734 8.51 168.275 23.404zm73.132 2.127c44.732 24.823 95.853 67.375 90.173 124.821-6.39 53.19-56.092 90.069-100.113 112.763-129.224 61.701-311.699 63.829-445.183 9.929C74.552 282.264 24.141 249.64 4.97 201.414c-14.91-39.715 2.84-81.558 32.661-109.217C100.113 35.46 179.635 16.312 261.288 4.964c88.753-10.638 182.475-1.418 261.288 26.241 18.46 5.674 36.211 12.766 52.541 21.985z" fill="#fff"/></svg>