<svg width="524" height="339" fill="none" xmlns="http://www.w3.org/2000/svg"><path d="M378.515 16.634C346.097 6.177 305.737 0 262.015 0c-43.722 0-84.09 6.179-116.517 16.634C59.256 44.447 0 102.207 0 168.96 0 262.86 117.3 339 262.015 339 406.695 339 524 262.86 524 168.959c0-66.748-59.258-124.49-145.485-152.325zm-116.5 249.25c-21.597 0-39.232-42.591-40.266-96.112a448.575 448.575 0 0040.266 1.8c13.809 0 27.259-.628 40.26-1.8-1.043 53.521-18.672 96.112-40.26 96.112zM224.47 127.87c5.887-37.567 20.469-64.178 37.545-64.178 17.075 0 31.637 26.611 37.519 64.178a416.18 416.18 0 01-37.519 1.683c-12.956 0-25.525-.602-37.545-1.683zm98.01-2.833c-8.756-58.966-32.522-101.235-60.465-101.235-27.943 0-51.724 42.27-60.484 101.235-53.222-8.336-90.423-27.304-90.423-49.402 0-29.777 67.566-53.917 150.912-53.917 83.347 0 150.892 24.14 150.892 53.917 0 22.098-37.201 41.066-90.426 49.402h-.006zM38.24 162.729c0-28.782 11.043-55.763 30.313-78.971a36.318 36.318 0 00-.337 4.86c0 36.21 54.217 66.991 129.816 78.311-.06 2.735-.104 5.474-.104 8.244 0 67.33 18.616 124.359 44.355 144.021-114.354-7.011-204.043-74.37-204.043-156.465zm243.51 156.473c25.726-19.663 44.342-76.688 44.342-144.021 0-2.77-.03-5.51-.091-8.244 75.579-11.317 129.806-42.098 129.806-78.312a35.91 35.91 0 00-.348-4.86c19.266 23.208 30.315 50.185 30.315 78.972 0 82.095-89.692 149.454-204.011 156.468" fill="#fff"/></svg>