<svg width="227" height="41" fill="none" xmlns="http://www.w3.org/2000/svg"><path d="M0 32.8V8.2c0-.311.234-.57.516-.57h24.701c.281 0 .516.259.516.57v1.66c0 .312-.235.572-.516.572H3.469c-.282 0-.516.26-.516.57V32.8c0 .311-.234.57-.516.57H.562A.558.558 0 010 32.8zm22.311.57h-1.828c-.281 0-.516-.259-.516-.57v-.104c0-.104.047-.207.094-.311L34.404 7.889a.548.548 0 01.422-.26h3c.187 0 .328.104.421.26l14.39 24.496c.047.104.094.207.094.311v.104c0 .311-.235.57-.516.57H50.06c-.187 0-.328-.103-.422-.259l-3.796-6.539a.548.548 0 00-.422-.26H26.95c-.187 0-.328.104-.422.26l-3.796 6.54c-.094.155-.235.259-.422.259zm13.405-22.679l-6.89 11.885c-.234.363.047.882.422.882h13.78c.422 0 .657-.519.422-.882l-6.843-11.885c-.188-.363-.656-.363-.89 0zM76.448 7.63c3.89 0 5.859 1.92 5.859 5.708v2.854c0 3.79-1.969 5.71-5.86 5.71H58.966c-.282 0-.516.259-.516.57V32.8c0 .311-.234.57-.515.57H56.06c-.282 0-.516-.259-.516-.57V8.2c0-.311.234-.57.516-.57h20.389zm0 2.802H58.965c-.282 0-.516.26-.516.57v7.526c0 .311.234.57.516.57h17.483c1.031 0 1.781-.207 2.25-.674.468-.467.703-1.194.703-2.232v-2.854c0-1.038-.235-1.816-.703-2.232-.469-.467-1.219-.674-2.25-.674zm5.531 22.938H80.15c-.281 0-.516-.259-.516-.57v-.104c0-.104.047-.207.094-.311L94.072 7.889a.548.548 0 01.421-.26h3c.188 0 .328.104.422.26l14.39 24.496c.047.104.094.207.094.311v.104c0 .311-.235.57-.516.57h-2.203c-.188 0-.328-.103-.422-.259l-3.797-6.59a.546.546 0 00-.421-.26H86.666c-.188 0-.328.104-.422.26l-3.797 6.538a.51.51 0 01-.468.312zM95.43 10.692l-6.89 11.885c-.235.363.047.882.422.882h13.78c.422 0 .656-.519.422-.882l-6.89-11.885a.463.463 0 00-.844 0zM135.694 8.2v10.328c0 .311.234.57.515.57h4.266c.14 0 .281-.051.375-.155l10.874-11.158a.504.504 0 01.375-.156h1.969c.281 0 .515.26.515.571 0 .156-.047.311-.187.415l-11.109 11.366a.642.642 0 000 .882l11.718 11.47c.094.104.187.26.187.415 0 .312-.234.571-.515.571h-2.484a.406.406 0 01-.328-.156l-11.343-11.158a.485.485 0 00-.329-.156h-3.937c-.281 0-.515.26-.515.571v10.328c0 .312-.235.571-.516.571h-1.828c-.281 0-.516-.26-.516-.57V22.471c0-.311-.234-.57-.515-.57h-4.172a.408.408 0 00-.328.155l-11.483 11.158a.484.484 0 01-.328.156h-2.25c-.282 0-.516-.26-.516-.571 0-.156.047-.311.188-.415l11.671-11.47c.234-.207.234-.623 0-.882L114.086 8.667c-.094-.104-.188-.26-.188-.415 0-.311.235-.571.516-.571h2.109c.141 0 .281.052.375.156l10.874 11.158a.505.505 0 00.375.156h4.125c.281 0 .516-.26.516-.571V8.2c0-.311.234-.57.515-.57h1.828c.328 0 .563.259.563.57z" fill="#fff"/><path d="M222.594 41h-51.137c-2.437 0-4.406-2.18-4.406-4.879V4.878c0-2.698 1.969-4.878 4.406-4.878h51.137C225.031 0 227 2.18 227 4.878V36.07c0 2.75-1.969 4.93-4.406 4.93z" fill="#FF1A3B"/><path d="M180.128 8.875v23.302c0 .675-.515 1.246-1.125 1.246h-.703c-.609 0-1.125-.571-1.125-1.246v-20.76c0-.674-.515-1.245-1.125-1.245h-1.406c-.609 0-1.125-.57-1.125-1.245v-.104c0-.675.516-1.246 1.125-1.246h4.312c.657.052 1.172.623 1.172 1.298zm10.359 0v23.302c0 .675-.516 1.246-1.125 1.246h-.703c-.609 0-1.125-.571-1.125-1.246v-20.76c0-.674-.516-1.245-1.125-1.245h-1.406c-.609 0-1.125-.57-1.125-1.245v-.104c0-.675.516-1.246 1.125-1.246h4.312c.703.052 1.172.623 1.172 1.298zm24.561 24.495h-19.171c-.328 0-.609-.155-.844-.414a1.216 1.216 0 01-.281-.779v-.363c0-.675.516-1.246 1.125-1.246h19.171c1.031 0 1.781-.207 2.25-.623.468-.415.703-1.193.703-2.231v-2.958c0-1.038-.235-1.817-.703-2.232-.469-.415-1.219-.623-2.25-.623h-10.265c-.61 0-1.125-.57-1.125-1.245v-.364c0-.674.515-1.245 1.125-1.245h10.265c1.031 0 1.781-.208 2.25-.675.468-.467.703-1.194.703-2.232v-2.854c0-1.038-.235-1.816-.703-2.232-.469-.467-1.219-.674-2.25-.674h-19.171c-.609 0-1.125-.571-1.125-1.246v-.311c0-.26.094-.571.235-.779.187-.26.515-.467.843-.467h19.124c3.89 0 5.859 1.92 5.859 5.709v2.491c0 1.609-.516 2.855-1.5 3.685a1.293 1.293 0 000 1.972c.984.83 1.5 2.076 1.5 3.685v2.543c.094 3.84-1.875 5.709-5.765 5.709z" fill="#fff"/></svg>