<svg width="20" height="20" fill="none" xmlns="http://www.w3.org/2000/svg"><path d="M15.933 2.46a8.386 8.386 0 00-11.866 0 8.386 8.386 0 000 11.866l5.49 5.49a.627.627 0 00.886 0l5.49-5.49a8.387 8.387 0 000-11.866zm-.887 10.98L10 18.486 4.954 13.44a7.144 7.144 0 010-10.093 7.145 7.145 0 0110.092 0c2.783 2.782 2.783 7.31 0 10.093z" fill="#FF1A3B"/><path d="M10 4.642a3.749 3.749 0 00-3.751 3.751A3.749 3.749 0 0010 12.144a3.749 3.749 0 003.751-3.751A3.749 3.749 0 0010 4.642zm1.765 5.516c-.024 0-.615.732-1.765.732a2.495 2.495 0 01-2.497-2.497A2.495 2.495 0 0110 5.896c2.242 0 3.319 2.709 1.765 4.262z" fill="#FF1A3B"/></svg>