<svg width="180" height="31" fill="none" xmlns="http://www.w3.org/2000/svg"><path d="M0 24.8V6.2c0-.235.186-.432.409-.432h19.587c.223 0 .409.197.409.432v1.256a.424.424 0 01-.41.431H2.75c-.223 0-.408.197-.408.432V24.8c0 .235-.186.432-.41.432H.447A.432.432 0 010 24.8zm17.692.432h-1.45c-.223 0-.409-.197-.409-.432v-.079c0-.078.037-.157.075-.235L27.28 5.965a.438.438 0 01.334-.197h2.379c.148 0 .26.079.334.197l11.41 18.521a.578.578 0 01.075.235v.079c0 .235-.186.432-.409.432h-1.71a.386.386 0 01-.334-.197l-3.01-4.944a.438.438 0 00-.335-.196H21.37a.387.387 0 00-.334.196l-3.011 4.944a.386.386 0 01-.334.197zm10.63-17.148l-5.464 8.986c-.186.274.037.667.334.667H34.12c.335 0 .52-.393.335-.667l-5.427-8.986c-.148-.275-.52-.275-.706 0zM60.62 5.768c3.084 0 4.645 1.452 4.645 4.317v2.158c0 2.865-1.56 4.316-4.645 4.316H46.755c-.223 0-.409.197-.409.432V24.8c0 .235-.186.432-.409.432h-1.486c-.223 0-.409-.197-.409-.432V6.2c0-.235.186-.432.409-.432H60.62zm0 2.12H46.755c-.223 0-.409.196-.409.431v5.69c0 .235.186.431.41.431H60.62c.817 0 1.412-.156 1.784-.51.371-.353.557-.902.557-1.687v-2.158c0-.785-.186-1.374-.557-1.688-.372-.353-.967-.51-1.785-.51zm4.385 17.344h-1.45c-.222 0-.408-.197-.408-.432v-.079a.58.58 0 01.074-.235L74.594 5.965a.438.438 0 01.335-.197h2.379c.148 0 .26.079.334.197l11.41 18.521a.578.578 0 01.075.235v.079c0 .235-.186.432-.41.432h-1.746a.386.386 0 01-.335-.197l-3.01-4.983a.438.438 0 00-.335-.196h-14.57a.386.386 0 00-.334.196l-3.01 4.944a.406.406 0 01-.372.236zM75.672 8.084L70.21 17.07c-.186.274.037.667.334.667H81.47c.335 0 .52-.393.335-.667L76.34 8.084a.375.375 0 00-.669 0zM107.599 6.2v7.809c0 .235.185.431.408.431h3.383a.41.41 0 00.297-.117l8.623-8.437a.41.41 0 01.297-.118h1.561c.223 0 .409.197.409.432a.363.363 0 01-.149.314l-8.808 8.594a.469.469 0 000 .667l9.291 8.672a.49.49 0 01.149.314c0 .235-.186.431-.409.431h-1.97a.33.33 0 01-.26-.117l-8.994-8.437a.393.393 0 00-.26-.118h-3.122c-.223 0-.409.196-.409.432v7.809c0 .235-.186.431-.409.431h-1.45c-.223 0-.408-.196-.408-.431v-7.77c0-.235-.186-.431-.409-.431h-3.308a.328.328 0 00-.26.117l-9.106 8.437a.391.391 0 01-.26.118h-1.784c-.223 0-.41-.197-.41-.432 0-.118.038-.236.15-.314l9.254-8.672c.186-.157.186-.471 0-.667l-8.771-8.594c-.075-.078-.15-.196-.15-.314 0-.235.187-.431.41-.431h1.672a.41.41 0 01.298.117l8.622 8.437a.411.411 0 00.298.118h3.27c.223 0 .409-.197.409-.432V6.2c0-.235.186-.432.409-.432h1.45c.26 0 .446.197.446.432z" fill="#0E0F28"/><path d="M176.506 31h-40.549c-1.933 0-3.494-1.648-3.494-3.689V3.69c0-2.04 1.561-3.689 3.494-3.689h40.549C178.439 0 180 1.648 180 3.689v23.583c0 2.08-1.561 3.728-3.494 3.728z" fill="#FF1A3B"/><path d="M142.833 6.71v17.62c0 .51-.409.94-.892.94h-.558c-.483 0-.892-.43-.892-.94V8.632c0-.51-.408-.942-.892-.942h-1.115c-.483 0-.892-.431-.892-.942V6.67c0-.51.409-.942.892-.942h3.42a1 1 0 01.929.981zm8.214 0v17.62c0 .51-.409.94-.892.94h-.558c-.483 0-.892-.43-.892-.94V8.632c0-.51-.408-.942-.892-.942h-1.115c-.483 0-.892-.431-.892-.942V6.67c0-.51.409-.942.892-.942h3.42c.557.04.929.471.929.981zm19.475 18.522h-15.201c-.26 0-.483-.118-.669-.314a.89.89 0 01-.223-.589v-.275c0-.51.409-.941.892-.941h15.201c.818 0 1.413-.157 1.784-.471.372-.314.558-.903.558-1.688v-2.236c0-.785-.186-1.374-.558-1.688-.371-.314-.966-.47-1.784-.47h-8.139c-.483 0-.892-.432-.892-.942v-.275c0-.51.409-.942.892-.942h8.139c.818 0 1.413-.157 1.784-.51.372-.353.558-.902.558-1.687v-2.158c0-.785-.186-1.374-.558-1.688-.371-.353-.966-.51-1.784-.51h-15.201c-.483 0-.892-.432-.892-.942v-.235c0-.196.074-.432.186-.589.149-.196.409-.353.669-.353h15.164c3.085 0 4.646 1.452 4.646 4.317v1.883c0 1.217-.409 2.158-1.189 2.786a.947.947 0 000 1.491c.78.628 1.189 1.57 1.189 2.786v1.923c.074 2.904-1.487 4.317-4.572 4.317z" fill="#fff"/></svg>