<svg width="70" height="70" fill="none" xmlns="http://www.w3.org/2000/svg"><path d="M54.14 29.126V4.75c0-2.62-2.131-4.75-4.75-4.75H10.767c-2.62 0-4.75 2.13-4.75 4.75v50.654c0 2.619 2.13 4.75 4.75 4.75h29.155v7.656c0 1.672 1.811 2.734 3.272 1.899l6.571-3.755c7.257 4.147 6.878 4.043 7.656 4.043 1.208 0 2.187-.98 2.187-2.187V52.904c7.786-7.48 4.702-20.481-5.468-23.778zM10.767 55.779a.376.376 0 01-.375-.375V4.75c0-.207.168-.375.375-.375H49.39c.207 0 .375.168.375.375v23.686c-7.84 0-14.218 6.379-14.218 14.218 0 4.024 1.68 7.661 4.375 10.25v2.875H10.767zm44.466 8.261l-4.383-2.504a2.187 2.187 0 00-2.17 0l-4.384 2.504v-8.262a14.205 14.205 0 0010.937 0v8.262zm-5.468-11.542c-5.428 0-9.843-4.416-9.843-9.844 0-5.427 4.415-9.843 9.843-9.843s9.843 4.416 9.843 9.843c0 5.428-4.415 9.844-9.843 9.844z" fill="#0E0F28"/><path d="M48.67 48.26c-.855 0-.964-.202-4.493-2.555a2.187 2.187 0 112.426-3.64l1.462.974 3.161-4.742a2.187 2.187 0 113.64 2.426l-4.375 6.563a2.186 2.186 0 01-1.822.974zM37.734 15.312H19.141a2.187 2.187 0 010-4.375h18.593a2.187 2.187 0 010 4.375zm0 8.749H19.141a2.187 2.187 0 010-4.374h18.593a2.187 2.187 0 010 4.374zm-7.656 8.75H19.141a2.187 2.187 0 010-4.375h10.937a2.187 2.187 0 010 4.375z" fill="#0E0F28"/></svg>