<svg width="70" height="70" fill="none" xmlns="http://www.w3.org/2000/svg"><path d="M28.304 65.543c-.139 0-.28-.01-.42-.032A32.953 32.953 0 018.019 54.494 32.94 32.94 0 010 32.949c0-8.8 3.427-17.075 9.65-23.298C15.874 3.428 24.148 0 32.95 0c8.02 0 15.748 2.914 21.761 8.208a32.92 32.92 0 0110.887 20.27 2.735 2.735 0 01-5.419.736C58.341 15.678 46.635 5.47 32.95 5.47c-15.153 0-27.48 12.328-27.48 27.48 0 13.436 9.995 25.11 23.249 27.157a2.734 2.734 0 01-.414 5.437zm-3.526-20.42L34.895 34.87a2.734 2.734 0 00.788-1.92V12.577a2.734 2.734 0 10-5.468 0v19.25l-9.33 9.455a2.734 2.734 0 103.893 3.84zm45.176 9.787a2.734 2.734 0 10-5.378-.992c-1.135 6.15-6.506 10.613-12.772 10.613-7.162 0-12.988-5.827-12.988-12.988 0-7.162 5.826-12.988 12.988-12.988 1.19 0 2.37.16 3.503.477a2.734 2.734 0 001.47-5.267 18.496 18.496 0 00-4.973-.679c-10.177 0-18.457 8.28-18.457 18.457C33.347 61.72 41.627 70 51.804 70c8.904 0 16.537-6.346 18.15-15.09zm-14.776 1.38l11.948-11.827a2.734 2.734 0 10-3.847-3.887L51.814 51.924l-3.545-3.545a2.734 2.734 0 10-3.867 3.867l4.026 4.026a4.77 4.77 0 003.384 1.397 4.77 4.77 0 003.366-1.38z" fill="#0E0F28"/></svg>