<svg width="70" height="70" fill="none" xmlns="http://www.w3.org/2000/svg"><g clip-path="url(#clip0_515_1681)" fill="#0E0F28"><path d="M27.83 47.17l9.668-29.003a2.051 2.051 0 00-3.891-1.297l-9.668 29.003a2.051 2.051 0 003.891 1.297zm14.49-8.998a6.16 6.16 0 006.152-6.152 6.16 6.16 0 00-6.153-6.152 6.16 6.16 0 00-6.152 6.152 6.16 6.16 0 006.152 6.152zm0-8.203c1.13 0 2.05.92 2.05 2.05 0 1.132-.92 2.052-2.05 2.052a2.053 2.053 0 01-2.051-2.051c0-1.13.92-2.05 2.05-2.05zm-23.203-4.101a6.16 6.16 0 00-6.152 6.152 6.16 6.16 0 006.152 6.152 6.16 6.16 0 006.152-6.152 6.16 6.16 0 00-6.152-6.152zm0 8.203c-1.13 0-2.05-.92-2.05-2.051 0-1.13.92-2.05 2.05-2.05 1.131 0 2.051.92 2.051 2.05s-.92 2.05-2.05 2.05z"/><path d="M69.59 25.43l-7.151-9.535.279-1.953a2.05 2.05 0 00-.58-1.74l-4.35-4.35 4.35-4.351a2.05 2.05 0 10-2.9-2.9l-4.35 4.35-4.351-4.35a2.053 2.053 0 00-1.74-.58l-20.302 2.9a2.05 2.05 0 00-1.16.58L2.199 28.637c-2.931 2.931-2.931 7.702 0 10.634l21.269 21.268c.435.435.911.804 1.415 1.11v.832c0 4.146 3.373 7.52 7.52 7.52H62.48c4.146 0 7.52-3.374 7.52-7.52V26.66a2.06 2.06 0 00-.41-1.231zM5.1 36.37a3.422 3.422 0 010-4.833L29.752 6.885l18.61-2.659 3.625 3.626-2.9 2.9-1.45-1.45a2.051 2.051 0 00-2.9 2.9l5.8 5.8c.4.4.925.601 1.45.601a2.05 2.05 0 001.45-3.5l-1.45-1.451 2.9-2.9 3.625 3.625-2.658 18.61-24.652 24.652a3.396 3.396 0 01-2.417 1.001 3.396 3.396 0 01-2.417-1L5.1 36.37zm60.799 26.11a3.422 3.422 0 01-3.419 3.42H32.403a3.422 3.422 0 01-3.408-3.166 7.49 7.49 0 005.107-2.194l25.135-25.135a2.05 2.05 0 00.58-1.16l1.801-12.607 4.28 5.707v35.137z"/></g><defs><clipPath id="clip0_515_1681"><path fill="#fff" d="M0 0h70v70H0z"/></clipPath></defs></svg>