<svg width="35" height="35" fill="none" xmlns="http://www.w3.org/2000/svg"><path d="M26.387 15.723a1.367 1.367 0 100-2.735 1.367 1.367 0 000 2.735z" fill="#0E0F28"/><path d="M29.531 2.734h-1.777V1.367a1.367 1.367 0 10-2.735 0v1.367H18.8V1.367a1.367 1.367 0 10-2.735 0v1.367H9.912V1.367a1.367 1.367 0 10-2.734 0v1.367h-1.71A5.475 5.475 0 000 8.204V29.53A5.475 5.475 0 005.469 35h10.459a1.367 1.367 0 100-2.734H5.468a2.737 2.737 0 01-2.734-2.735V8.203A2.737 2.737 0 015.47 5.47h1.709v1.367a1.367 1.367 0 102.734 0V5.469h6.152v1.367a1.367 1.367 0 102.735 0V5.469h6.22v1.367a1.367 1.367 0 102.735 0V5.469h1.777a2.737 2.737 0 012.735 2.734v7.793a1.367 1.367 0 102.734 0V8.203a5.475 5.475 0 00-5.469-5.469z" fill="#0E0F28"/><path d="M26.729 18.457c-4.561 0-8.272 3.71-8.272 8.271 0 4.561 3.71 8.272 8.271 8.272C31.29 35 35 31.29 35 26.729c0-4.561-3.71-8.272-8.271-8.272zm0 13.809a5.543 5.543 0 01-5.538-5.537 5.543 5.543 0 015.538-5.538 5.543 5.543 0 015.537 5.538 5.543 5.543 0 01-5.537 5.537z" fill="#0E0F28"/><path d="M28.71 25.361h-.614v-1.435a1.367 1.367 0 10-2.735 0v2.803c0 .755.612 1.367 1.367 1.367h1.983a1.367 1.367 0 100-2.735zm-8.27-9.638a1.367 1.367 0 100-2.735 1.367 1.367 0 000 2.735zm-5.948 5.947a1.367 1.367 0 100-2.734 1.367 1.367 0 000 2.734zm-5.947-5.947a1.367 1.367 0 100-2.735 1.367 1.367 0 000 2.735zm0 5.947a1.367 1.367 0 100-2.734 1.367 1.367 0 000 2.734zm0 5.947a1.367 1.367 0 100-2.734 1.367 1.367 0 000 2.734zm5.947 0a1.367 1.367 0 100-2.734 1.367 1.367 0 000 2.734zm0-11.894a1.367 1.367 0 100-2.735 1.367 1.367 0 000 2.735z" fill="#0E0F28"/></svg>