<svg width="270" height="47" fill="none" xmlns="http://www.w3.org/2000/svg"><path d="M0 37.6V9.4c0-.357.279-.654.613-.654h29.38c.335 0 .614.297.614.654v1.904c0 .357-.279.654-.613.654H4.126c-.335 0-.614.298-.614.655V37.6c0 .357-.278.654-.613.654H.669A.652.652 0 010 37.6zm26.537.654h-2.174c-.334 0-.613-.297-.613-.654v-.119c0-.119.055-.238.111-.357l17.06-28.081a.656.656 0 01.502-.297h3.568c.223 0 .39.119.502.297l17.115 28.081c.056.119.111.238.111.357v.119c0 .357-.278.654-.613.654h-2.564c-.223 0-.39-.119-.502-.297l-4.516-7.496a.656.656 0 00-.502-.298H32.057c-.223 0-.39.12-.502.298l-4.516 7.496c-.112.178-.279.297-.502.297zm15.945-25.998L34.287 25.88c-.28.416.055 1.011.501 1.011H51.18c.502 0 .78-.595.502-1.011l-8.14-13.624c-.223-.417-.78-.417-1.06 0zm48.448-3.51c4.626 0 6.968 2.2 6.968 6.544v3.272c0 4.343-2.341 6.544-6.969 6.544H70.134c-.334 0-.613.298-.613.655V37.6c0 .357-.279.654-.613.654h-2.23c-.335 0-.614-.297-.614-.654V9.4c0-.357.28-.654.614-.654h24.251zm0 3.212H70.133c-.334 0-.613.298-.613.655v8.626c0 .357.279.655.613.655H90.93c1.227 0 2.119-.238 2.676-.774.558-.535.837-1.368.837-2.558V15.29c0-1.19-.28-2.082-.837-2.558-.557-.536-1.45-.774-2.676-.774zm6.578 26.296h-2.174c-.335 0-.614-.297-.614-.654v-.119c0-.119.056-.238.112-.357L111.89 9.043a.657.657 0 01.502-.297h3.568c.223 0 .39.119.502.297l17.115 28.081c.056.119.112.238.112.357v.119c0 .357-.279.654-.613.654h-2.621c-.223 0-.39-.119-.501-.297l-4.516-7.556a.657.657 0 00-.502-.297h-21.854c-.223 0-.39.119-.502.297l-4.516 7.497a.609.609 0 01-.557.356zm16-25.998l-8.195 13.624c-.279.416.056 1.011.502 1.011h16.39c.502 0 .781-.595.502-1.011l-8.195-13.624a.56.56 0 00-1.004 0zm47.89-2.856v11.84c0 .356.279.654.613.654h5.073a.61.61 0 00.446-.179l12.935-12.79a.609.609 0 01.446-.18h2.341c.335 0 .613.298.613.655 0 .178-.055.357-.223.476l-13.212 13.03a.716.716 0 000 1.01l13.937 13.149c.112.119.223.297.223.476 0 .357-.279.654-.613.654h-2.955a.49.49 0 01-.39-.178L167.14 25.224a.583.583 0 00-.39-.178h-4.683c-.335 0-.613.297-.613.654v11.84c0 .357-.279.654-.614.654h-2.174c-.334 0-.613-.297-.613-.654V25.76c0-.357-.279-.655-.613-.655h-4.962a.49.49 0 00-.39.179l-13.659 12.791a.586.586 0 01-.391.178h-2.676c-.334 0-.613-.297-.613-.654 0-.178.056-.357.223-.476l13.882-13.148c.279-.238.279-.714 0-1.011l-13.157-13.03c-.112-.119-.223-.297-.223-.476 0-.356.279-.654.613-.654h2.509c.167 0 .334.06.446.179l12.934 12.79a.612.612 0 00.446.18h4.906c.335 0 .613-.298.613-.655V9.4c0-.357.279-.654.614-.654h2.174c.39 0 .669.297.669.654z" fill="#0E0F28"/><path d="M264.759 47h-60.823c-2.899 0-5.241-2.499-5.241-5.592V5.592c0-3.093 2.342-5.592 5.241-5.592h60.823C267.658 0 270 2.499 270 5.592v35.756c0 3.153-2.342 5.652-5.241 5.652z" fill="#FF1A3B"/><path d="M214.249 10.173v26.713c0 .773-.613 1.428-1.338 1.428h-.836c-.725 0-1.338-.654-1.338-1.428V13.09c0-.774-.613-1.428-1.338-1.428h-1.672c-.725 0-1.338-.655-1.338-1.428v-.12c0-.772.613-1.427 1.338-1.427h5.129c.78.06 1.393.714 1.393 1.487zm12.321 0v26.713c0 .773-.613 1.428-1.338 1.428h-.836c-.725 0-1.338-.654-1.338-1.428V13.09c0-.774-.613-1.428-1.338-1.428h-1.673c-.724 0-1.338-.655-1.338-1.428v-.12c0-.772.614-1.427 1.338-1.427h5.13c.836.06 1.393.714 1.393 1.487zm29.214 28.081h-22.802c-.391 0-.725-.178-1.004-.475-.223-.239-.334-.596-.334-.893v-.416c0-.774.613-1.428 1.338-1.428h22.802c1.226 0 2.118-.238 2.676-.714.557-.476.836-1.369.836-2.558v-3.392c0-1.19-.279-2.082-.836-2.558-.558-.476-1.45-.714-2.676-.714h-12.21c-.725 0-1.338-.654-1.338-1.428v-.416c0-.773.613-1.428 1.338-1.428h12.21c1.226 0 2.118-.238 2.676-.773.557-.536.836-1.369.836-2.558V15.23c0-1.19-.279-2.082-.836-2.558-.558-.535-1.45-.773-2.676-.773h-22.802c-.725 0-1.338-.655-1.338-1.428v-.357c0-.298.111-.655.278-.892.223-.298.614-.536 1.004-.536h22.746c4.627 0 6.969 2.201 6.969 6.544v2.856c0 1.844-.613 3.272-1.784 4.224a1.447 1.447 0 000 2.26c1.171.953 1.784 2.38 1.784 4.225v2.915c.111 4.403-2.23 6.544-6.857 6.544z" fill="#fff"/></svg>