<svg width="35" height="35" fill="none" xmlns="http://www.w3.org/2000/svg"><path d="M7.066 23.266c3.452 4.126 7.608 7.375 12.35 9.674 1.806.856 4.221 1.871 6.912 2.046.167.007.326.014.493.014 1.806 0 3.257-.624 4.439-1.907a.16.16 0 00.029-.037c.42-.507.9-.964 1.4-1.45.34-.327.688-.667 1.022-1.016 1.545-1.61 1.545-3.655-.014-5.214l-4.36-4.359c-.739-.768-1.624-1.174-2.552-1.174-.928 0-1.82.406-2.582 1.167l-2.596 2.596c-.24-.137-.486-.26-.718-.377a8.99 8.99 0 01-.798-.435c-2.364-1.501-4.51-3.46-6.563-5.976-1.037-1.312-1.734-2.415-2.22-3.539a43.582 43.582 0 001.937-1.893c.217-.225.442-.45.667-.674.783-.783 1.204-1.69 1.204-2.611 0-.921-.413-1.828-1.204-2.611l-2.161-2.161c-.254-.254-.493-.5-.74-.754a39.598 39.598 0 00-1.472-1.458C8.792.384 7.914 0 6.986 0 6.065 0 5.18.384 4.404 1.124L1.692 3.837A5.573 5.573 0 00.03 7.405c-.138 1.733.181 3.575 1.008 5.802 1.27 3.444 3.184 6.643 6.027 10.059zM1.8 7.557a3.836 3.836 0 011.153-2.466l2.698-2.698c.42-.406.884-.616 1.334-.616.442 0 .892.21 1.305.63.486.45.943.922 1.436 1.422.247.254.5.508.755.769l2.16 2.161c.45.45.683.907.683 1.356 0 .45-.232.907-.682 1.357-.225.224-.45.457-.675.681-.674.682-1.305 1.327-2.001 1.944l-.037.036c-.601.602-.507 1.175-.362 1.61.007.022.014.037.022.058.558 1.342 1.334 2.618 2.545 4.141 2.176 2.684 4.468 4.765 6.992 6.368.311.203.645.363.957.522.29.145.558.283.798.435.029.015.05.03.08.044.239.123.47.181.703.181.58 0 .957-.37 1.08-.493l2.713-2.712c.42-.421.877-.646 1.327-.646.551 0 1 .341 1.284.646l4.373 4.366c.87.87.863 1.813-.022 2.734-.305.326-.624.638-.964.964-.508.493-1.037 1.001-1.516 1.574-.834.9-1.828 1.32-3.112 1.32-.123 0-.253-.007-.377-.015-2.378-.152-4.59-1.08-6.251-1.87-4.511-2.184-8.47-5.28-11.756-9.211-2.705-3.257-4.526-6.288-5.73-9.537-.747-1.995-1.03-3.597-.913-5.055z" fill="#0E0F28"/></svg>