<svg width="40" height="30" viewBox="0 0 40 30" fill="none" xmlns="http://www.w3.org/2000/svg">
<path d="M3.71541 6.91943H9.64776C9.95841 6.91943 10.2103 6.66766 10.2103 6.35693C10.2103 6.04621 9.95841 5.79443 9.64776 5.79443H3.71541C3.40476 5.79443 3.15291 6.04621 3.15291 6.35693C3.15291 6.66766 3.40468 6.91943 3.71541 6.91943Z" fill="white"/>
<path d="M9.44436 9.62744H7.10091C6.79026 9.62744 6.53841 9.87922 6.53841 10.1899C6.53841 10.5007 6.79026 10.7524 7.10091 10.7524H9.44436C9.75501 10.7524 10.0069 10.5007 10.0069 10.1899C10.0069 9.87922 9.75501 9.62744 9.44436 9.62744Z" fill="white"/>
<path d="M1.3625 13.5283H7.1009C7.41155 13.5283 7.6634 13.2765 7.6634 12.9658C7.6634 12.6551 7.41155 12.4033 7.1009 12.4033H1.3625C1.05185 12.4033 0.800003 12.6551 0.800003 12.9658C0.800003 13.2765 1.05185 13.5283 1.3625 13.5283Z" fill="white"/>
<path d="M10.2103 23.5005C10.2103 23.1898 9.95841 22.938 9.64776 22.938H3.71541C3.40476 22.938 3.15291 23.1898 3.15291 23.5005C3.15291 23.8112 3.40476 24.063 3.71541 24.063H9.64776C9.95841 24.063 10.2103 23.8112 10.2103 23.5005Z" fill="white"/>
<path d="M9.44436 19.105H7.10091C6.79026 19.105 6.53841 19.3568 6.53841 19.6675C6.53841 19.9782 6.79026 20.23 7.10091 20.23H9.44436C9.75501 20.23 10.0069 19.9782 10.0069 19.6675C10.0069 19.3568 9.75501 19.105 9.44436 19.105Z" fill="white"/>
<path d="M7.6634 16.8916C7.6634 16.5809 7.41155 16.3291 7.1009 16.3291H1.3625C1.05185 16.3291 0.800003 16.5809 0.800003 16.8916C0.800003 17.2023 1.05185 17.4541 1.3625 17.4541H7.1009C7.41155 17.4541 7.6634 17.2023 7.6634 16.8916Z" fill="white"/>
<path d="M24.7647 8.16597C25.0754 8.16597 25.3272 7.9142 25.3272 7.60347V6.74487C25.3272 6.43415 25.0754 6.18237 24.7647 6.18237C24.454 6.18237 24.2022 6.43415 24.2022 6.74487V7.60347C24.2022 7.9142 24.454 8.16597 24.7647 8.16597Z" fill="white"/>
<path d="M30.9493 8.74405C30.7295 8.52445 30.3734 8.52445 30.1537 8.74405L29.5466 9.35117C29.3269 9.57092 29.3269 9.92702 29.5466 10.1467C29.7664 10.3664 30.1225 10.3663 30.3421 10.1467L30.9493 9.53957C31.1689 9.3199 31.1689 8.9638 30.9493 8.74405Z" fill="white"/>
<path d="M32.0899 14.3662C31.7792 14.3662 31.5274 14.618 31.5274 14.9287C31.5274 15.2394 31.7792 15.4912 32.0899 15.4912H32.9484C33.2592 15.4912 33.5109 15.2394 33.5109 14.9287C33.5109 14.618 33.2592 14.3662 32.9484 14.3662H32.0899Z" fill="white"/>
<path d="M30.3421 19.7106C30.1224 19.491 29.7663 19.491 29.5466 19.7106C29.3269 19.9303 29.3269 20.2864 29.5466 20.5061L30.1537 21.1132C30.3736 21.3329 30.7296 21.3328 30.9493 21.1132C31.1689 20.8935 31.1689 20.5374 30.9493 20.3177L30.3421 19.7106Z" fill="white"/>
<path d="M24.2022 22.2539V23.1124C24.2022 23.4232 24.454 23.6749 24.7647 23.6749C25.0754 23.6749 25.3272 23.4232 25.3272 23.1124V22.2539C25.3272 21.9432 25.0754 21.6914 24.7647 21.6914C24.454 21.6914 24.2022 21.9433 24.2022 22.2539Z" fill="white"/>
<path d="M19.1872 19.7106L18.58 20.3177C18.3603 20.5375 18.3603 20.8936 18.58 21.1132C18.7998 21.3329 19.1559 21.3328 19.3755 21.1132L19.9826 20.5061C20.2023 20.2864 20.2023 19.9303 19.9826 19.7106C19.763 19.491 19.4068 19.491 19.1872 19.7106Z" fill="white"/>
<path d="M16.5808 14.3662C16.2702 14.3662 16.0183 14.618 16.0183 14.9287C16.0183 15.2394 16.2702 15.4912 16.5808 15.4912H17.4394C17.7501 15.4912 18.0019 15.2394 18.0019 14.9287C18.0019 14.618 17.7501 14.3662 17.4394 14.3662H16.5808Z" fill="white"/>
<path d="M19.9827 9.35117L19.3755 8.74405C19.1559 8.52445 18.7997 8.52445 18.5801 8.74405C18.3604 8.9638 18.3604 9.3199 18.5801 9.53957L19.1872 10.1467C19.407 10.3664 19.7631 10.3663 19.9827 10.1467C20.2023 9.92702 20.2023 9.57092 19.9827 9.35117Z" fill="white"/>
<path d="M27.7894 14.9287C27.7894 14.618 27.5377 14.3662 27.2269 14.3662H25.3272V10.1899C25.3272 9.87922 25.0754 9.62744 24.7647 9.62744C24.454 9.62744 24.2022 9.87922 24.2022 10.1899V14.9287C24.2022 15.2395 24.454 15.4912 24.7647 15.4912H27.2269C27.5376 15.4912 27.7894 15.2395 27.7894 14.9287Z" fill="white"/>
<path d="M35.4306 14.8359C35.7407 14.8171 35.9768 14.5505 35.958 14.2404C35.6001 8.33769 30.6834 3.71387 24.7646 3.71387C18.5807 3.71387 13.5497 8.74487 13.5497 14.9288C13.5497 21.1127 18.5807 26.1437 24.7646 26.1437C30.3048 26.1437 35.0321 22.0846 35.8545 16.607C35.9006 16.2998 35.6889 16.0133 35.3817 15.9672C35.0752 15.9212 34.788 16.1327 34.7419 16.44C34.0032 21.3611 29.754 25.0188 24.7646 25.0188C19.201 25.0188 14.6747 20.4925 14.6747 14.9289C14.6747 9.36534 19.201 4.83894 24.7646 4.83894C30.0897 4.83894 34.5131 8.99852 34.835 14.3087C34.8537 14.6186 35.1201 14.8539 35.4306 14.8359V14.8359Z" fill="white"/>
<path d="M24.7646 0.493408C22.786 0.493408 20.8475 0.903883 19.0633 1.67151H9.13858C8.82793 1.67151 8.57608 1.92328 8.57608 2.23401C8.57608 2.54473 8.82793 2.79651 9.13858 2.79651H16.9471C15.8913 3.47601 14.9194 4.29561 14.0624 5.24181C13.8539 5.47198 13.8715 5.82771 14.1017 6.03628C14.332 6.24486 14.6876 6.22723 14.8963 5.99698C17.4164 3.21433 21.0133 1.61841 24.7646 1.61841C32.104 1.61841 38.075 7.58938 38.075 14.9287C38.075 22.268 32.104 28.2391 24.7646 28.2391C17.4253 28.2391 11.4543 22.2681 11.4543 14.9287C11.4543 12.3586 12.1885 9.86413 13.5773 7.71478C13.7459 7.45386 13.6711 7.10571 13.4101 6.93711C13.1492 6.76858 12.8011 6.84328 12.6324 7.10428C11.1256 9.43588 10.3293 12.1415 10.3293 14.9287C10.3293 20.0112 12.9697 24.4881 16.9507 27.061H9.13866C8.82801 27.061 8.57616 27.3127 8.57616 27.6235C8.57616 27.9342 8.82801 28.186 9.13866 28.186H19.0555C20.8075 28.9434 22.7378 29.3641 24.7647 29.3641C32.7243 29.3641 39.2 22.8884 39.2 14.9287C39.2 6.96906 32.7243 0.493408 24.7646 0.493408V0.493408Z" fill="white"/>
</svg>
