<svg width="40" height="34" viewBox="0 0 40 34" fill="none" xmlns="http://www.w3.org/2000/svg">
<path d="M38.3817 8.10992L31.6582 1.38649C30.6798 0.407954 29.1612 0.293803 28.0473 1.11506L24.4153 3.79303C24.2835 3.89023 24.2006 4.04016 24.1883 4.20351C24.176 4.36686 24.2356 4.52744 24.3514 4.64331L25.2267 5.51857L21.3815 9.36378H18.6183L14.7728 5.51834L15.6482 4.64286C15.7641 4.52699 15.8236 4.36641 15.8114 4.20306C15.7991 4.03971 15.7161 3.88978 15.5843 3.79258L11.9524 1.11521C10.839 0.293728 9.32043 0.407879 8.3416 1.38679L7.27696 2.4515C7.05736 2.6711 7.05736 3.0272 7.27696 3.2468C7.49656 3.4664 7.85267 3.4664 8.07227 3.2468L9.13698 2.18209C9.71936 1.59971 10.6225 1.53169 11.2849 2.02039L12.4933 2.91125L3.1427 12.2618L2.25185 11.0538C1.76352 10.3905 1.83147 9.48678 2.4134 8.90485L6.48188 4.83644C6.70148 4.61684 6.70148 4.26081 6.48188 4.04113C6.26235 3.82153 5.90625 3.82153 5.68657 4.04113L1.61809 8.10954C0.640009 9.08762 0.525633 10.6063 1.34644 11.7209L4.02479 15.3529C4.12199 15.4848 4.27191 15.5677 4.43526 15.58C4.44936 15.581 4.46339 15.5816 4.47741 15.5816C4.62592 15.5816 4.76917 15.5227 4.87507 15.4168L5.7504 14.5414L6.40343 15.1945C5.02372 16.3823 4.21649 18.116 4.21649 19.9523C4.21649 22.9675 6.36848 25.5424 9.28803 26.1127C9.60551 27.7951 10.8038 29.1697 12.3844 29.7367V31.7567C12.3844 32.6805 13.1356 33.432 14.059 33.432C14.7856 33.432 15.4054 32.967 15.637 32.3191H16.4421C16.6736 32.967 17.2931 33.432 18.0193 33.432C18.7458 33.432 19.3656 32.967 19.5972 32.3191H20.4026C20.6341 32.9668 21.2538 33.4318 21.9802 33.4318C22.7065 33.4318 23.3261 32.9668 23.5576 32.3191H24.3631C24.5946 32.9668 25.2143 33.4318 25.9406 33.4318C26.8641 33.4318 27.6155 32.6804 27.6155 31.7569V27.3357C28.4975 27.2139 29.2902 26.8103 29.9001 26.2184C31.0243 26.1479 32.1046 25.7774 33.0374 25.1404C33.2939 24.9652 33.3598 24.6153 33.1846 24.3588C33.0096 24.1024 32.6596 24.0364 32.4031 24.2116C31.909 24.549 31.3644 24.7945 30.7923 24.9423C30.9729 24.537 31.0893 24.0975 31.1289 23.636C32.581 22.9978 33.532 21.564 33.532 19.9524C33.532 18.7039 32.9587 17.5483 31.9987 16.7921L32.7985 15.9923C33.9709 16.9682 34.6586 18.4167 34.6586 19.9522C34.6586 20.9574 34.3676 21.9319 33.8173 22.7704C33.6469 23.03 33.7192 23.3786 33.9788 23.5491C34.074 23.6116 34.181 23.6413 34.2869 23.6413C34.47 23.6413 34.6496 23.552 34.7576 23.3875C35.4286 22.3652 35.7833 21.1773 35.7833 19.9523C35.7833 18.1157 34.976 16.382 33.5962 15.1948L34.2496 14.5414L35.1249 15.4168C35.2307 15.5226 35.374 15.5815 35.5225 15.5815C35.5365 15.5815 35.5505 15.581 35.5646 15.5799C35.728 15.5676 35.8779 15.4847 35.9751 15.3529L38.6531 11.721C39.4743 10.607 39.3602 9.08837 38.3817 8.10992V8.10992ZM29.3148 13.304C29.3148 13.1629 29.3698 13.0301 29.4696 12.9303L31.0541 11.3458L31.8015 12.0932L30.217 13.6777C30.1172 13.7775 29.9845 13.8325 29.8434 13.8325C29.7022 13.8325 29.5695 13.7775 29.4696 13.6777C29.3698 13.5779 29.3148 13.4452 29.3148 13.304V13.304ZM27.9227 8.21447L28.4223 8.71412L26.8379 10.2986C26.738 10.3984 26.6054 10.4534 26.4641 10.4534C26.323 10.4534 26.1903 10.3984 26.0904 10.2986C25.8844 10.0926 25.8844 9.75723 26.0904 9.5512L27.6749 7.96674L27.9227 8.21447ZM26.0221 6.31388L26.8796 7.17143L25.2952 8.7559C24.6506 9.40045 24.6506 10.4493 25.2952 11.0938C25.6074 11.406 26.0226 11.578 26.4641 11.578C26.9057 11.578 27.3209 11.406 27.6331 11.0938L29.2176 9.50935L30.2588 10.5506L28.6743 12.135C28.3621 12.4473 28.1901 12.8625 28.1901 13.304C28.1901 13.7455 28.3621 14.1607 28.6743 14.473C28.9866 14.7852 29.4017 14.9572 29.8433 14.9572C30.2849 14.9572 30.7 14.7852 31.0122 14.473L32.5967 12.8885L33.4543 13.7461L29.842 17.3584L22.4098 9.9262L26.0221 6.31388ZM23.655 27.3756H24.2656V31.1943H23.655V27.3756ZM19.7948 26.2509L22.9648 23.1389C22.9631 23.1869 22.9611 23.2349 22.9611 23.2833C22.9611 24.4507 23.4533 25.5047 24.2401 26.2509H19.7948ZM15.7343 29.6908C15.9455 29.6085 16.1493 29.512 16.3448 29.4018V31.1943H15.7343V29.6908ZM19.6947 27.3756H20.3052V31.1943H19.6947V27.3756ZM18.7719 25.679C18.7863 25.5284 18.7943 25.3761 18.7943 25.2219C18.7943 22.5778 16.6431 20.4267 13.999 20.4267C13.8955 20.4267 13.7929 20.4311 13.6909 20.4376L16.8262 17.3718C16.9435 19.0208 18.3216 20.3268 19.9999 20.3268C21.7549 20.3268 23.1827 18.8991 23.1827 17.144C23.1827 17.0689 23.1792 16.9946 23.174 16.9208L26.3995 19.2441C25.5334 19.3838 24.7572 19.7956 24.1626 20.3896L24.1633 20.3862L18.7719 25.679ZM8.80382 17.5949L9.66461 18.4557L10.719 21.7287C10.3892 22.0387 10.1031 22.3942 9.87108 22.7857C8.56787 22.4964 7.59204 21.3156 7.59204 19.9524C7.59211 19.008 8.04782 18.1367 8.80382 17.5949V17.5949ZM19.9999 15.0859C21.1347 15.0859 22.058 16.0092 22.058 17.144C22.058 18.2789 21.1347 19.2021 19.9999 19.2021C18.8651 19.2021 17.9418 18.2789 17.9418 17.144C17.9418 16.0092 18.8651 15.0859 19.9999 15.0859ZM28.7878 19.5783C28.7878 19.5783 21.9893 14.6593 21.9101 14.5997C21.3777 14.199 20.716 13.9612 19.9999 13.9612C19.1718 13.9612 18.4167 14.2795 17.8499 14.7997L11.6278 20.8819L10.7987 18.3081L18.6183 10.4885H21.3816L29.2011 18.308L28.7916 19.58C28.7904 19.5795 28.7891 19.5789 28.7878 19.5783V19.5783ZM8.9458 11.3459L10.5303 12.9304C10.6301 13.0302 10.6851 13.1629 10.6851 13.304C10.6851 13.4452 10.6301 13.5779 10.5303 13.6777C10.4304 13.7775 10.2978 13.8325 10.1565 13.8325C10.0154 13.8325 9.88271 13.7775 9.78288 13.6777L8.19842 12.0932L8.9458 11.3459ZM4.54199 14.1593L3.81778 13.1773L13.4089 3.58618L14.3907 4.30993L4.54199 14.1593ZM7.40319 12.8886L8.98758 14.473C9.2998 14.7852 9.71493 14.9572 10.1565 14.9572C10.5981 14.9572 11.0133 14.7852 11.3255 14.473C11.6377 14.1607 11.8097 13.7455 11.8097 13.304C11.8097 12.8625 11.6377 12.4473 11.3255 12.135L9.74103 10.5506L9.75408 10.5375L10.7823 9.50935L12.3667 11.0938C12.679 11.406 13.0941 11.578 13.5357 11.578C13.9773 11.578 14.3924 11.406 14.7046 11.0938C15.3492 10.4493 15.3492 9.40045 14.7046 8.7559L13.1202 7.17143L13.9777 6.31388L17.5901 9.9262L10.1578 17.3584L6.54563 13.7462L7.40319 12.8886ZM12.325 7.96674L13.9094 9.5512C14.1154 9.75723 14.1154 10.0926 13.9094 10.2986C13.8096 10.3984 13.6768 10.4534 13.5357 10.4534C13.3945 10.4534 13.2618 10.3984 13.162 10.2986L11.5776 8.71412L12.325 7.96674ZM5.3412 19.9523C5.3412 18.4172 6.0288 16.9685 7.20099 15.992L8.00094 16.792C7.04086 17.5482 6.46733 18.7038 6.46733 19.9523C6.46733 20.9617 6.84406 21.928 7.52814 22.673C8.04144 23.2321 8.69327 23.6297 9.41028 23.8303C9.3022 24.1858 9.23448 24.5587 9.21235 24.9436C6.96571 24.3675 5.3412 22.3261 5.3412 19.9523V19.9523ZM10.3285 25.2219C10.3285 23.198 11.9751 21.5514 13.999 21.5514C16.0229 21.5514 17.6696 23.1979 17.6696 25.2219C17.6696 27.2459 16.0229 28.8924 13.999 28.8924C11.9751 28.8924 10.3285 27.2459 10.3285 25.2219ZM14.059 32.3073C13.7559 32.3073 13.5091 32.0603 13.5091 31.7567V29.9923C13.6702 30.0087 13.8336 30.0171 13.999 30.0171C14.206 30.0171 14.4094 30.0025 14.6096 29.9769V31.7567C14.6096 32.0603 14.3626 32.3073 14.059 32.3073V32.3073ZM18.0193 32.3073C17.7161 32.3073 17.4695 32.0603 17.4695 31.7567V28.5337L18.57 27.4533V31.7566C18.57 32.0603 18.323 32.3073 18.0193 32.3073ZM21.9802 32.3071C21.6768 32.3071 21.4299 32.0602 21.4299 31.7569V27.3756H22.5303V31.7569C22.5303 32.0602 22.2835 32.3071 21.9802 32.3071ZM25.9406 32.3071C25.6372 32.3071 25.3904 32.0602 25.3904 31.7569V27.3756H26.4908V31.7569C26.4908 32.0602 26.2439 32.3071 25.9406 32.3071ZM27.0531 26.2506C25.417 26.2506 24.0858 24.9195 24.0858 23.2833C24.0858 21.6471 25.4169 20.316 27.0531 20.316C28.6893 20.316 30.0204 21.6471 30.0204 23.2833C30.0204 24.9195 28.6893 26.2506 27.0531 26.2506ZM32.4073 19.9524C32.4073 20.9686 31.8826 21.887 31.0501 22.4089C30.8619 21.5484 30.4026 20.7885 29.766 20.2236L30.3351 18.4559L31.1959 17.5951C31.9517 18.1367 32.4073 19.0079 32.4073 19.9524V19.9524ZM35.4578 14.1591L25.6091 4.31031L26.591 3.58625L36.1819 13.1771L35.4578 14.1591ZM37.7478 11.0533L36.8569 12.2616L27.5065 2.91117L28.7148 2.02024C29.3775 1.53161 30.2808 1.59956 30.8629 2.18172L37.5864 8.90515C38.1685 9.4873 38.2364 10.3908 37.7478 11.0533V11.0533Z" fill="white"/>
<path d="M15.6963 25.222C15.6963 24.2861 14.9349 23.5247 13.999 23.5247C13.0631 23.5247 12.3017 24.2861 12.3017 25.222C12.3017 26.1579 13.0631 26.9193 13.999 26.9193C14.9349 26.9193 15.6963 26.1579 15.6963 25.222V25.222ZM13.4264 25.222C13.4264 24.9062 13.6833 24.6494 13.999 24.6494C14.3148 24.6494 14.5716 24.9062 14.5716 25.222C14.5716 25.5377 14.3148 25.7946 13.999 25.7946C13.6833 25.7946 13.4264 25.5377 13.4264 25.222Z" fill="white"/>
<path d="M27.0531 21.5859C26.1172 21.5859 25.3558 22.3473 25.3558 23.2833C25.3558 24.2192 26.1172 24.9806 27.0531 24.9806C27.989 24.9806 28.7504 24.2192 28.7504 23.2833C28.7504 22.3473 27.989 21.5859 27.0531 21.5859V21.5859ZM27.0531 23.8559C26.7373 23.8559 26.4805 23.599 26.4805 23.2833C26.4805 22.9675 26.7373 22.7106 27.0531 22.7106C27.3688 22.7106 27.6257 22.9675 27.6257 23.2833C27.6257 23.599 27.3688 23.8559 27.0531 23.8559Z" fill="white"/>
</svg>
