<svg width="40" height="43" viewBox="0 0 40 43" fill="none" xmlns="http://www.w3.org/2000/svg">
<path fill-rule="evenodd" clip-rule="evenodd" d="M15.1265 6.35558C15.1265 5.20276 16.061 4.26819 17.2139 4.26819H20.1362C21.2891 4.26819 22.2236 5.20276 22.2236 6.35558C22.2236 7.50841 21.2891 8.44298 20.1362 8.44298H17.2139C16.061 8.44298 15.1265 7.50841 15.1265 6.35558ZM17.2139 5.9381C16.9833 5.9381 16.7964 6.12501 16.7964 6.35558C16.7964 6.58616 16.9833 6.77306 17.2139 6.77306H20.1362C20.3668 6.77306 20.5537 6.58616 20.5537 6.35558C20.5537 6.12501 20.3668 5.9381 20.1362 5.9381H17.2139Z" fill="white"/>
<path fill-rule="evenodd" clip-rule="evenodd" d="M9.24374 4.48259C9.28849 4.39985 9.33993 4.31861 9.39866 4.23975C10.2304 3.12282 13.011 0.093676 18.5815 0.0933838H18.5858C23.7213 0.0947197 26.9122 2.98167 27.9576 4.10093C28.061 4.21165 28.1495 4.33009 28.2242 4.45383C28.4335 4.7924 28.538 5.17223 28.5594 5.54111L28.764 9.06923C28.7798 9.34247 28.7526 9.60448 28.689 9.85046L28.8266 14.0291C28.8552 14.9006 28.4487 15.6494 27.8293 16.1235C27.9202 16.2572 27.9733 16.4186 27.9733 16.5924V18.9186C27.9733 19.9604 27.5219 20.9511 26.7359 21.6347C26.646 21.7129 26.5697 21.8312 26.5264 21.9857C26.2944 22.8147 25.6961 24.6095 24.4861 26.2136C24.0898 26.7389 23.6226 27.2499 23.0771 27.7005C23.1687 27.6659 23.268 27.647 23.3717 27.647C23.8328 27.647 24.2067 28.0208 24.2067 28.482V30.8402L31.4036 32.2538C31.4093 32.2549 31.4151 32.2561 31.4209 32.2572V27.9363C30.1653 27.1939 29.3208 25.8249 29.3208 24.2574C29.3208 22.3531 30.5664 20.7419 32.285 20.19C33.1559 19.9103 33.8544 20.6313 33.8544 21.3618V23.6133H34.6662V21.3618C34.6662 20.6313 35.365 19.9103 36.2355 20.19C37.9542 20.7419 39.2 22.3531 39.2 24.2574C39.2 25.8248 38.3554 27.1938 37.1001 27.9363V39.2446C37.1001 39.594 37.0362 39.9309 36.9193 40.2424C36.6955 41.3583 35.7153 42.2588 34.4608 42.2588H3.30702C1.57264 42.2588 0.36312 40.5388 0.949804 38.9064L1.99413 36.0012C2.68723 34.0732 4.33932 32.6488 6.34848 32.2471L13.3739 30.8426V28.482C13.3739 28.1334 13.5875 27.8348 13.8909 27.7097C13.3467 27.2598 12.8912 26.7466 12.513 26.2124C11.3668 24.5936 10.9231 22.7815 10.7659 21.9334C10.7353 21.7682 10.667 21.6407 10.5848 21.5573C9.92995 20.8929 9.56286 19.9975 9.56286 19.0646V16.5924C9.56286 16.4452 9.60098 16.3068 9.66786 16.1867C8.97751 15.7114 8.51812 14.9102 8.56442 13.9729L8.76372 9.93596C8.67146 9.63687 8.63363 9.31249 8.66323 8.97217L8.97559 5.38051C9.00106 5.08785 9.07942 4.7755 9.24374 4.48259ZM35.4302 35.2304V27.7011C35.4302 27.1852 35.7391 26.7695 36.1294 26.566C36.9636 26.1309 37.5301 25.2596 37.5301 24.2574C37.5301 23.3401 37.055 22.5324 36.3361 22.0691V24.0308C36.3361 24.7225 35.7754 25.2832 35.0837 25.2832H33.4369C32.7452 25.2832 32.1845 24.7225 32.1845 24.0308V22.0691C31.4658 22.5324 30.9907 23.3401 30.9907 24.2574C30.9907 25.2597 31.5573 26.131 32.3915 26.566C32.7818 26.7695 33.0908 27.1852 33.0908 27.7011V32.8659C34.0771 33.4077 34.8929 34.227 35.4302 35.2304ZM10.3541 11.5891L10.2323 14.0553C10.2042 14.6236 10.7637 15.101 11.366 14.9533C13.3381 14.4696 16.284 13.8527 18.5792 13.8447C20.9532 13.8365 24.0134 14.4751 26.0267 14.9673C26.6211 15.1127 27.1761 14.6477 27.1575 14.084L27.0761 11.6085C26.61 11.7802 26.0888 11.8219 25.5681 11.695C23.5631 11.2062 20.7141 10.6259 18.585 10.6333C16.539 10.6404 13.8161 11.1949 11.8562 11.6732C11.3369 11.7999 10.8182 11.7588 10.3541 11.5891ZM26.7982 5.3236C26.844 5.40238 26.8752 5.50567 26.8794 5.63354L27.0096 9.58853C26.8316 9.94748 26.4098 10.1814 25.9636 10.0726C23.9511 9.58198 20.9294 8.95522 18.5792 8.9634C16.3192 8.97125 13.4295 9.57041 11.4603 10.0508C11.0417 10.153 10.6459 9.95362 10.4506 9.63345L10.6536 5.52091C10.6587 5.41771 10.6801 5.34218 10.7071 5.28791C10.7117 5.28044 10.7164 5.27351 10.721 5.26716C11.3163 4.45688 13.5573 1.88771 18.2407 1.76764C18.3531 1.76476 18.4669 1.7633 18.5821 1.7633C18.7075 1.7633 18.8315 1.76526 18.9543 1.76915C23.2356 1.90399 25.8934 4.33789 26.7509 5.26244C26.7677 5.28048 26.7835 5.30089 26.7982 5.3236ZM11.2328 16.6484V19.0646C11.2328 19.5588 11.4272 20.0331 11.7741 20.3851C12.1249 20.7409 12.3259 21.1876 12.4078 21.6289C12.5464 22.3765 12.9323 23.9147 13.8759 25.2474C14.7951 26.5457 16.2343 27.647 18.5821 27.647C20.6837 27.647 22.1365 26.5554 23.1529 25.2079C24.1816 23.8443 24.7104 22.2784 24.9183 21.5356C25.0381 21.1078 25.2737 20.6932 25.64 20.3746C26.0614 20.0081 26.3034 19.4771 26.3034 18.9186V16.663C26.0818 16.6681 25.8559 16.6447 25.6301 16.5895C23.6234 16.0989 20.7369 15.5072 18.585 15.5146C16.5055 15.5219 13.7281 16.0934 11.7638 16.5751C11.5862 16.6187 11.4084 16.6426 11.2328 16.6484ZM15.0439 28.4827V31.1418C15.9744 31.8615 17.3459 32.2623 18.7903 32.2623C20.2347 32.2623 21.6062 31.8615 22.5367 31.1418V28.482C22.5367 28.3025 22.5933 28.1363 22.6897 28.0002C21.6106 28.7804 20.2568 29.3169 18.5821 29.3169C17.1757 29.3169 16.008 28.9954 15.0439 28.4827ZM8.86433 40.5889H28.9033V33.4645L27.2334 33.1365V34.3267C27.2334 35.7101 26.1119 36.8316 24.7285 36.8316H13.0391C11.6557 36.8316 10.5343 35.7101 10.5343 34.3267V33.1132L8.86433 33.4471V40.5889ZM7.19442 33.781V40.5889H3.30702C2.72889 40.5889 2.32569 40.0157 2.52128 39.4713L3.5656 36.566C4.06065 35.189 5.24074 34.1715 6.67587 33.8846L7.19442 33.781ZM30.5733 33.7925V40.5889H34.4608C35.0386 40.5889 35.4419 40.0157 35.2465 39.4713L34.2057 36.5769C33.7091 35.1947 32.5227 34.1754 31.0817 33.8924L30.5733 33.7925ZM13.9744 32.4255L12.2042 32.7794V34.3267C12.2042 34.7878 12.578 35.1616 13.0391 35.1616H24.7285C25.1897 35.1616 25.5635 34.7878 25.5635 34.3267V32.8085L23.6077 32.4244C22.3028 33.4578 20.5093 33.9322 18.7903 33.9322C17.072 33.9322 15.2791 33.4582 13.9744 32.4255Z" fill="white"/>
</svg>
