<svg width="40" height="38" viewBox="0 0 40 38" fill="none" xmlns="http://www.w3.org/2000/svg">
<path d="M7.34358 37.3822C6.13822 37.3822 4.94537 36.9548 4.03049 36.0917C3.05217 35.1701 2.50291 33.9222 2.48204 32.5791C2.46201 31.2352 2.97371 29.973 3.92197 29.0231L12.1592 20.7733C12.4798 20.4528 12.9981 20.4528 13.3187 20.7733C13.6392 21.0939 13.6392 21.6131 13.3187 21.9345L5.08143 30.1842C4.4487 30.8178 4.10812 31.6592 4.12148 32.5557C4.13483 33.4506 4.50212 34.2828 5.15405 34.8972C6.42954 36.1009 8.53142 36.0141 9.83946 34.7052L11.6667 32.8754C11.9873 32.5549 12.5056 32.5549 12.8262 32.8754C13.1467 33.196 13.1467 33.7152 12.8262 34.0366L10.9989 35.8663C9.99306 36.873 8.65997 37.3822 7.34358 37.3822V37.3822ZM29.1671 20.7575C29.1279 20.7575 29.0886 20.7566 29.0502 20.7566C28.597 20.7516 28.2347 20.3802 28.2397 19.9269C28.2447 19.4761 28.6112 19.1147 29.0594 19.1147C29.1078 19.1155 29.1312 19.1147 29.1671 19.1147C30.2706 19.1147 31.3391 18.9068 32.3433 18.4962C32.9936 18.2324 33.6021 17.8876 34.1555 17.4719C36.8885 15.421 38.108 11.9902 37.3267 8.74052L33.0228 13.0503C32.3074 13.7673 31.0603 13.7673 30.3441 13.0503L26.8265 9.52768C26.4684 9.16958 26.2714 8.69294 26.2714 8.18709C26.2714 7.6804 26.4684 7.20459 26.8265 6.84565L31.1304 2.53504C28.2889 1.84388 25.3231 2.66693 23.2287 4.76464C22.4316 5.56349 21.8138 6.49339 21.394 7.52931C21.0158 8.45838 20.808 9.43419 20.7754 10.4325C20.7604 10.8858 20.3756 11.2598 19.929 11.2264C19.4766 11.2114 19.1218 10.8324 19.1368 10.3791C19.1761 9.18544 19.4248 8.01847 19.8764 6.91076C20.3781 5.67284 21.1168 4.55929 22.0701 3.60435C24.793 0.876409 28.7531 -0.0459816 32.4017 1.19778C32.7832 1.32717 33.067 1.64187 33.1588 2.03754C33.2523 2.43905 33.1338 2.85224 32.8433 3.14273L27.9859 8.00762C27.9242 8.06939 27.9116 8.13951 27.9116 8.18792C27.9116 8.23634 27.9242 8.30645 27.9859 8.36822L31.5035 11.8908C31.6029 11.9902 31.7648 11.9902 31.8641 11.8908L36.7224 7.02596C37.0128 6.73547 37.4269 6.61944 37.825 6.71126C38.2207 6.80308 38.5346 7.08689 38.664 7.47004C40.068 11.6037 38.6523 16.1514 35.1405 18.7866C34.4744 19.2875 33.7415 19.7015 32.9627 20.0179C31.7606 20.5079 30.4843 20.7575 29.1671 20.7575V20.7575Z" fill="white"/>
<path d="M6.94117 33.9147C7.46627 33.9147 7.89194 33.4891 7.89194 32.964C7.89194 32.4389 7.46627 32.0132 6.94117 32.0132C6.41608 32.0132 5.9904 32.4389 5.9904 32.964C5.9904 33.4891 6.41608 33.9147 6.94117 33.9147Z" fill="white"/>
<path d="M1.62054 18.0905C1.41102 18.0905 1.20067 18.0103 1.04123 17.8501C0.720692 17.5295 0.720692 17.0103 1.04123 16.6889L8.87613 8.84319C9.19667 8.52265 9.71504 8.52265 10.0356 8.84319C10.3561 9.16373 10.3561 9.68294 10.0356 10.0043L2.20069 17.8501C2.04042 18.0103 1.83006 18.0905 1.62054 18.0905V18.0905Z" fill="white"/>
<path d="M20.0425 23.048C19.2328 23.048 18.4223 22.7391 17.8054 22.1223C16.5717 20.8869 16.5717 18.8768 17.8054 17.6414L20.1694 15.274C20.4899 14.9535 21.0083 14.9535 21.3289 15.274C21.6494 15.5946 21.6494 16.1138 21.3289 16.4352L18.9649 18.8025C18.3705 19.3977 18.3705 20.366 18.9649 20.962C19.56 21.5572 20.5267 21.5572 21.121 20.962L24.6503 17.4277C24.8565 17.2207 24.8565 16.8843 24.6503 16.6772L18.0775 10.0953C17.9289 9.94672 17.7069 9.90081 17.5091 9.97677L16.9974 10.1771C14.9447 10.9835 12.6175 10.5252 11.024 9.01431L10.0356 10.0043C9.71508 10.3249 9.1967 10.3249 8.87616 10.0043C8.55562 9.68378 8.55562 9.16456 8.87616 8.84319L10.443 7.27471C10.7635 6.95417 11.2819 6.95417 11.6024 7.27471L12.0724 7.74467C13.2068 8.88159 14.9055 9.23552 16.3997 8.64953L16.9114 8.44836C17.7144 8.13366 18.6276 8.32314 19.2378 8.93418L25.8106 15.5161C26.6562 16.3634 26.6562 17.7415 25.8106 18.588L22.2813 22.1223C21.6636 22.7391 20.8522 23.048 20.0425 23.048V23.048Z" fill="white"/>
<path d="M7.07059 27.8477C6.79346 27.8477 6.52216 27.7067 6.36774 27.4521C4.32596 24.0689 3.7191 21.2733 3.56718 20.3801L1.04041 17.85C0.719868 17.5295 0.719868 17.0103 1.04041 16.6889C1.36095 16.3684 1.87933 16.3684 2.19987 16.6889L4.91695 19.4102C5.04717 19.5412 5.13065 19.7123 5.15152 19.8951C5.15486 19.9235 5.53383 22.8969 7.77094 26.6023C8.0055 26.9905 7.88029 27.4955 7.49297 27.7292C7.36108 27.8093 7.215 27.8477 7.07059 27.8477V27.8477Z" fill="white"/>
<path d="M25.8298 26.8303C25.0201 26.8303 24.2095 26.5214 23.5935 25.9045L20.5033 22.8093C20.1827 22.4888 20.1827 21.9696 20.5033 21.6482C20.8238 21.3276 21.3422 21.3276 21.6627 21.6482L24.7529 24.7434C25.3473 25.3394 26.3147 25.3377 26.9091 24.7434C27.5034 24.1474 27.5034 23.1791 26.9091 22.5848L24.0342 19.7057C23.7137 19.3852 23.7137 18.8651 24.0342 18.5446C24.3548 18.2241 24.8731 18.2241 25.1937 18.5446L28.0685 21.4236C29.3015 22.6582 29.3015 24.6683 28.0685 25.9037C27.45 26.5214 26.6403 26.8303 25.8298 26.8303Z" fill="white"/>
<path d="M23.1678 30.8045C22.3222 30.8045 21.5283 30.4747 20.9315 29.8762L18.2144 27.1558C17.6167 26.5573 17.2878 25.7618 17.2878 24.9153C17.2878 24.0698 17.6167 23.2734 18.2144 22.6757C19.4098 21.477 21.4941 21.4787 22.6878 22.6757L25.4057 25.3962C26.6386 26.6324 26.6386 28.6416 25.4057 29.8762C24.8072 30.4747 24.0125 30.8045 23.1678 30.8045V30.8045ZM20.4507 23.3886C20.0433 23.3886 19.661 23.5472 19.373 23.836C19.085 24.1248 18.9264 24.508 18.9264 24.9153C18.9264 25.3235 19.085 25.7067 19.373 25.9955L22.0901 28.7159C22.6669 29.2936 23.6703 29.2919 24.2463 28.7159C24.8406 28.1208 24.8406 27.1525 24.2463 26.5573L21.5283 23.8369C21.2395 23.5472 20.8572 23.3886 20.4507 23.3886Z" fill="white"/>
<path d="M19.0917 33.3604C18.282 33.3604 17.4715 33.0516 16.8546 32.4347L14.1375 29.7143C13.5398 29.1158 13.211 28.3202 13.211 27.4738C13.211 26.6282 13.5398 25.8319 14.1375 25.2342C15.3329 24.0364 17.4172 24.0364 18.6117 25.2342L21.3288 27.9546C21.9265 28.5523 22.2562 29.3478 22.2562 30.1942C22.2562 31.0407 21.9273 31.8362 21.3288 32.4347C20.712 33.0516 19.9023 33.3604 19.0917 33.3604ZM16.3746 25.9462C15.9673 25.9462 15.585 26.1048 15.297 26.3937C15.009 26.6825 14.8504 27.0656 14.8504 27.473C14.8504 27.8812 15.009 28.2643 15.297 28.5531L18.0141 31.2736C18.6084 31.8687 19.5759 31.8687 20.1702 31.2736C20.4582 30.9848 20.6168 30.6016 20.6168 30.1934C20.6168 29.7861 20.4582 29.4029 20.1702 29.1141L17.4531 26.3937C17.1643 26.1057 16.782 25.9462 16.3746 25.9462V25.9462Z" fill="white"/>
<path d="M14.7143 35.5691C13.8696 35.5691 13.0749 35.2394 12.4772 34.6409L9.76012 31.9204C9.16245 31.3219 8.83356 30.5264 8.83356 29.68C8.83356 28.8344 9.16245 28.0381 9.76012 27.4404C10.9555 26.2425 13.0398 26.2425 14.2343 27.4404L16.9514 30.1608C17.5491 30.7593 17.878 31.5548 17.878 32.4013C17.878 33.2477 17.5491 34.0432 16.9514 34.6409C16.3538 35.2402 15.5591 35.5691 14.7143 35.5691ZM11.9964 28.1533C11.589 28.1533 11.2067 28.3119 10.9187 28.6007C10.6308 28.8895 10.4722 29.2726 10.4722 29.68C10.4722 30.0882 10.6308 30.4713 10.9187 30.7602L13.6358 33.4806C14.2118 34.0574 15.2152 34.0574 15.792 33.4806C16.08 33.1918 16.2386 32.8086 16.2386 32.4013C16.2386 31.9931 16.08 31.6099 15.792 31.3211L13.0749 28.6007C12.7869 28.3119 12.4038 28.1533 11.9964 28.1533Z" fill="white"/>
<path d="M15.822 20.2366C15.8028 20.2366 15.7844 20.2366 15.7652 20.2366C13.2485 20.204 11.0882 17.9577 10.9972 17.8617C10.6858 17.5337 10.6992 17.0153 11.0264 16.7023C11.3545 16.3909 11.872 16.4034 12.185 16.729C12.2026 16.7474 13.9697 18.5738 15.7911 18.5938C16.514 18.6113 17.1159 18.3309 17.6793 17.7657C17.9998 17.4452 18.5182 17.4452 18.8388 17.7657C19.1593 18.0863 19.1593 18.6063 18.8388 18.9269C17.9723 19.7967 16.9573 20.2366 15.822 20.2366V20.2366Z" fill="white"/>
<path d="M11.0231 8.6738C10.8102 8.6738 10.5965 8.59199 10.4412 8.4359C10.2935 8.2798 10.2033 8.07445 10.2033 7.85325C10.2033 7.64039 10.2935 7.42669 10.4412 7.27895C10.7526 6.96675 11.3019 6.96675 11.6049 7.27895C11.7526 7.42669 11.8428 7.64039 11.8428 7.85325C11.8428 8.07529 11.7526 8.2798 11.6049 8.4359C11.4496 8.59199 11.2359 8.6738 11.0231 8.6738Z" fill="white"/>
</svg>
