<svg width="40" height="40" viewBox="0 0 40 40" fill="none" xmlns="http://www.w3.org/2000/svg">
<path d="M20.9496 19.0514C20.6563 18.7581 20.1816 18.7581 19.8883 19.0514C19.5958 19.3439 19.5958 19.8186 19.8883 20.1119C20.1816 20.4044 20.6563 20.4044 20.9496 20.1119C21.2421 19.8186 21.2421 19.3439 20.9496 19.0514Z" fill="white"/>
<path d="M30.495 9.50535C29.0295 8.03992 26.6571 8.03984 25.1915 9.50535C23.7298 10.967 23.7297 13.346 25.1917 14.8089C26.6539 16.2702 29.0329 16.2708 30.495 14.8088C31.9603 13.3434 31.9606 10.9709 30.495 9.50535ZM29.4343 13.7481C28.5573 14.6251 27.1298 14.6251 26.2524 13.7482C25.3752 12.8705 25.3752 11.443 26.2522 10.566C27.1314 9.68678 28.5549 9.68663 29.4343 10.566C30.3136 11.4452 30.3137 12.8687 29.4343 13.7481Z" fill="white"/>
<path d="M38.9803 1.01973C38.833 0.872507 38.632 0.792706 38.423 0.800581C38.2535 0.806656 34.2158 0.968957 29.4162 2.66539C25.5701 4.02335 22.3644 5.96759 19.888 8.4441C19.333 8.99903 18.793 9.58748 18.2764 10.1988C15.8277 8.75745 13.8656 9.2094 12.6251 9.87323C9.76906 11.4017 8.00122 15.552 8.00122 18.5205C8.00145 18.8238 8.18422 19.0973 8.46442 19.2133C8.5572 19.2518 8.6547 19.2705 8.7513 19.2705C8.94653 19.2705 9.1383 19.1942 9.28178 19.0508C10.788 17.5446 12.6458 17.6388 13.2527 17.7186L13.5154 17.9812C12.9985 19.2112 12.5821 20.4343 12.2767 21.6239C12.1664 22.0544 12.2036 22.51 12.3675 22.9267C11.6454 23.2595 10.9487 23.7481 10.3421 24.3547C8.41155 26.2853 8.01952 30.9904 8.00377 31.1898C7.98652 31.4086 8.06587 31.624 8.22105 31.7791C8.36227 31.9203 8.5533 31.9988 8.7513 31.9988C8.77095 31.9988 8.79068 31.9981 8.8104 31.9965C9.00975 31.9808 13.715 31.5888 15.6456 29.6582C16.2519 29.0518 16.7405 28.3552 17.0733 27.6333C17.5144 27.8067 17.9685 27.8281 18.3768 27.7235C19.5658 27.4182 20.7888 27.0019 22.0189 26.4849L22.2816 26.7476C22.3613 27.3546 22.4555 29.2124 20.9494 30.7185C20.7349 30.933 20.6707 31.2556 20.7868 31.5358C20.9029 31.816 21.1763 31.9987 21.4797 31.9987C24.4482 31.9987 28.5984 30.2309 30.1269 27.3748C30.7907 26.1345 31.2426 24.1724 29.8013 21.7237C30.4123 21.2072 31.0008 20.6672 31.556 20.1121C34.0325 17.6356 35.9767 14.4298 37.3346 10.5841C39.0311 5.78421 39.1934 1.74649 39.1994 1.57699C39.2069 1.36886 39.1275 1.16703 38.9803 1.01973ZM9.67808 16.9073C10.144 14.6526 11.4972 12.1784 13.3332 11.1957C14.5602 10.5392 15.9012 10.6035 17.3271 11.384C16.1124 12.9817 15.0563 14.703 14.176 16.5206C14.1648 16.5137 14.0298 16.344 13.779 16.2874C13.6759 16.2641 11.6915 15.8373 9.67808 16.9073ZM14.5849 28.5975C13.5537 29.6287 11.1345 30.1726 9.60548 30.3947C9.82763 28.8656 10.3716 26.4465 11.4028 25.4153C11.9803 24.8378 12.6499 24.4 13.323 24.1534L15.8469 26.6773C15.6003 27.3504 15.1625 28.02 14.5849 28.5975ZM18.0042 26.2704C17.7871 26.326 17.5357 26.2444 17.3488 26.0578C16.3785 25.0875 15.999 24.7079 15.8799 24.5889C15.6615 24.3705 15.1259 23.8349 13.9429 22.6519C13.7559 22.4645 13.6743 22.2131 13.7297 21.9964C13.9699 21.0609 14.2841 20.101 14.6661 19.132L20.8683 25.3341C19.8991 25.7162 18.9394 26.0303 18.0042 26.2704ZM28.8045 26.667C27.8219 28.503 25.3478 29.8563 23.0931 30.3221C23.812 28.9693 23.9705 27.2472 23.7078 26.203C23.6468 25.9604 23.4886 25.8385 23.4797 25.8242C25.2972 24.9439 27.0184 23.8878 28.6162 22.673C29.3967 24.0991 29.461 25.4403 28.8045 26.667ZM30.4955 19.0514C29.8197 19.7272 29.0919 20.38 28.3325 20.9918C26.5068 22.4618 24.4974 23.707 22.3536 24.6982L15.3021 17.6468C16.2933 15.5028 17.5384 13.4934 19.0083 11.668C19.6206 10.908 20.2734 10.1802 20.9489 9.50475C23.1708 7.28279 26.0384 5.51443 29.4743 4.24153L35.7587 10.526C34.486 13.9618 32.7176 16.8294 30.4955 19.0514ZM36.2984 8.94413L31.0561 3.7019C33.9122 2.81479 36.3969 2.48262 37.6371 2.36321C37.5176 3.60365 37.1854 6.08834 36.2984 8.94413Z" fill="white"/>
<path d="M18.8278 31.7788C18.5347 31.4859 18.0598 31.4861 17.767 31.7789L15.646 33.9007C15.3532 34.1936 15.3533 34.6686 15.6462 34.9614C15.9392 35.2542 16.4141 35.2542 16.7069 34.9612L18.8279 32.8394C19.1207 32.5465 19.1206 32.0716 18.8278 31.7788Z" fill="white"/>
<path d="M8.22146 21.1725C7.92866 20.8795 7.45383 20.8795 7.16081 21.1723L5.03904 23.2934C4.74609 23.5862 4.74602 24.0611 5.03882 24.354C5.33155 24.6468 5.80637 24.6471 6.09948 24.3542L8.22124 22.2331C8.51419 21.9403 8.51426 21.4654 8.22146 21.1725Z" fill="white"/>
<path d="M13.5247 32.8402C13.2319 32.5473 12.757 32.5473 12.464 32.8401L7.38348 37.9199C7.09053 38.2127 7.09053 38.6876 7.38341 38.9805C7.67613 39.2734 8.15111 39.2735 8.44406 38.9806L13.5246 33.9008C13.8175 33.6079 13.8175 33.133 13.5247 32.8402Z" fill="white"/>
<path d="M7.52467 32.8402C7.23186 32.5473 6.75689 32.5473 6.46401 32.8401L1.38348 37.9199C1.09053 38.2127 1.09053 38.6876 1.38341 38.9805C1.67613 39.2734 2.15111 39.2735 2.44406 38.9806L7.52459 33.9008C7.81754 33.6079 7.81754 33.133 7.52467 32.8402Z" fill="white"/>
<path d="M7.16007 26.4756C6.86727 26.1828 6.39229 26.1828 6.09942 26.4756L1.01964 31.5562C0.726759 31.8491 0.726759 32.324 1.01971 32.6169C1.31259 32.9098 1.78749 32.9098 2.08037 32.6168L7.16015 27.5363C7.45302 27.2434 7.45302 26.7685 7.16007 26.4756Z" fill="white"/>
<path d="M24.1312 15.8691C23.8382 15.5762 23.3635 15.5762 23.0704 15.8691L22.0099 16.9296C21.7171 17.2225 21.7171 17.6974 22.0099 17.9903C22.3029 18.2832 22.7777 18.2832 23.0707 17.9903L24.1312 16.9298C24.4241 16.6369 24.4241 16.162 24.1312 15.8691Z" fill="white"/>
</svg>
