<svg width="40" height="40" viewBox="0 0 40 40" fill="none" xmlns="http://www.w3.org/2000/svg">
<path d="M26.9433 25.1201H13.0554C12.476 25.1196 11.9585 25.4823 11.7613 26.0271C11.5641 26.5719 11.7297 27.1818 12.1753 27.5522L14.2496 29.2802C14.4968 29.4868 14.8087 29.6 15.1309 29.6001H24.8678C25.1898 29.6001 25.5015 29.4868 25.7485 29.2802L27.8234 27.5522C28.269 27.1818 28.4346 26.5719 28.2374 26.0271C28.0402 25.4823 27.5227 25.1196 26.9433 25.1201ZM27.0073 26.5691L24.9325 28.2971C24.9144 28.3118 24.8917 28.3195 24.8685 28.3189H15.1321C15.1088 28.3196 15.086 28.3116 15.0681 28.2964L12.9932 26.5684C12.959 26.5448 12.9468 26.4999 12.9645 26.4622C12.9744 26.4216 13.0125 26.3945 13.054 26.3982H26.942C26.9836 26.3945 27.0216 26.4216 27.0316 26.4622C27.0499 26.4997 27.0382 26.545 27.0041 26.5691H27.0073V26.5691Z" fill="white"/>
<path d="M31.5386 25.4402L29.4573 27.1682C29.0101 27.5378 28.8434 28.1485 29.0408 28.694C29.2382 29.2396 29.7571 29.6022 30.3372 29.6001H35.36C36.0669 29.6001 36.64 29.0271 36.64 28.3201V26.4001C36.64 25.6932 36.0669 25.1201 35.36 25.1201H32.4192C32.0973 25.1211 31.7859 25.2342 31.5386 25.4402V25.4402ZM35.36 26.4001V28.3201H30.3373C30.2955 28.3242 30.257 28.2969 30.247 28.2561C30.2294 28.2194 30.2418 28.1754 30.2758 28.1531L32.3577 26.4212C32.3755 26.406 32.3984 26.3981 32.4217 26.3988L35.36 26.4001Z" fill="white"/>
<path d="M8.46145 25.4401C8.21509 25.2346 7.90481 25.1215 7.584 25.1201H4.63998C3.93305 25.1201 3.35997 25.6932 3.35997 26.4001V28.3201C3.35997 29.0271 3.93305 29.6001 4.63998 29.6001H9.6614C10.2413 29.6017 10.7598 29.2391 10.9572 28.6939C11.1546 28.1487 10.9885 27.5382 10.5421 27.1682L8.46145 25.4401ZM9.75299 28.2561C9.74297 28.2969 9.70455 28.3242 9.66272 28.3201H4.63998V26.4001H7.584C7.60737 26.3992 7.63023 26.4072 7.648 26.4225L9.73056 28.1543C9.76143 28.1785 9.77082 28.2212 9.75299 28.2561Z" fill="white"/>
<path fill-rule="evenodd" clip-rule="evenodd" d="M9.12001 31.52H4.63999C4.28656 31.52 4.00002 31.8066 4.00002 32.16C4.00002 32.5134 4.28656 32.8 4.63999 32.8H9.12001C9.47345 32.8 9.75999 32.5134 9.75999 32.16C9.75999 31.8066 9.47345 31.52 9.12001 31.52Z" fill="white"/>
<path fill-rule="evenodd" clip-rule="evenodd" d="M35.36 31.52H30.88C30.5266 31.52 30.24 31.8066 30.24 32.16C30.24 32.5134 30.5266 32.8 30.88 32.8H35.36C35.7135 32.8 36 32.5134 36 32.16C36 31.8066 35.7135 31.52 35.36 31.52Z" fill="white"/>
<path fill-rule="evenodd" clip-rule="evenodd" d="M25.76 31.52H14.24C13.8866 31.52 13.6 31.8066 13.6 32.16C13.6 32.5134 13.8866 32.8 14.24 32.8H25.76C26.1135 32.8 26.4 32.5134 26.4 32.16C26.4 31.8066 26.1135 31.52 25.76 31.52Z" fill="white"/>
<path d="M39.1999 19.36C39.1999 18.2997 38.3403 17.4401 37.2799 17.4401H35.9999C35.442 17.4421 34.9128 17.6881 34.5516 18.1133L33.3503 14.514C33.054 13.6223 32.38 12.9064 31.5077 12.5569C31.5077 12.4769 31.5199 12.4001 31.5199 12.3201C31.5199 5.95771 26.3622 0.800049 19.9999 0.800049C13.6376 0.800049 8.47996 5.95771 8.47996 12.3201C8.47996 12.4001 8.49022 12.4768 8.49211 12.5568C7.62052 12.9057 6.94672 13.6207 6.65017 14.5114L5.44826 18.1133C5.08701 17.6881 4.5579 17.4421 3.99994 17.4401H2.71992C1.65955 17.4401 0.799931 18.2997 0.799931 19.36C0.799931 20.4204 1.65955 21.28 2.71992 21.28H3.73494L1.36697 23.6481C1.00301 24.0082 0.798798 24.4992 0.799931 25.0112V33.44C0.80327 34.2508 1.31557 34.972 2.07995 35.2423V37.2801C2.07995 38.3404 2.93957 39.2 3.99994 39.2H8.47996C9.54033 39.2 10.3999 38.3404 10.3999 37.2801V35.3601H29.5999V37.2801C29.5999 38.3404 30.4595 39.2 31.5199 39.2H35.9999C37.0603 39.2 37.9199 38.3404 37.9199 37.2801V35.2423C38.6843 34.9721 39.1965 34.2508 39.1999 33.44V25.0112C39.2011 24.5002 38.9975 24.0099 38.6348 23.65L36.2668 21.282H37.2799C37.7895 21.282 38.2781 21.0794 38.6382 20.719C38.9984 20.3584 39.2004 19.8696 39.1999 19.36V19.36ZM32.1349 14.9166L33.8316 20.0001H28.5618C30.085 18.3087 31.0702 16.2022 31.3918 13.9489C31.7392 14.181 32.0003 14.5211 32.1349 14.9166V14.9166ZM19.9999 2.08006C25.6553 2.08006 30.2399 6.66465 30.2399 12.3201C30.2399 17.9755 25.6553 22.56 19.9999 22.56C14.3445 22.56 9.75991 17.9755 9.75991 12.3201C9.76665 6.66742 14.3473 2.08674 19.9999 2.08006V2.08006ZM7.86555 14.9133C8.00048 14.5191 8.26132 14.1801 8.60795 13.9488C8.92964 16.2022 9.9148 18.3087 11.438 20H6.16823L7.86555 14.9133ZM2.71992 20C2.36649 20 2.07995 19.7135 2.07995 19.36C2.07995 19.0066 2.36649 18.7201 2.71992 18.7201H3.99994C4.35337 18.7201 4.63991 19.0066 4.63991 19.36V20H2.71992ZM9.11993 37.2801C9.11993 37.6335 8.83339 37.92 8.47996 37.92H3.99994C3.6465 37.92 3.35996 37.6335 3.35996 37.2801V35.3601H9.11993V37.2801ZM36.6399 37.2801C36.6399 37.6335 36.3534 37.92 35.9999 37.92H31.5199C31.1665 37.92 30.8799 37.6335 30.8799 37.2801V35.3601H36.6399V37.2801ZM37.7279 24.5549C37.8506 24.6751 37.9197 24.8395 37.9199 25.0112V33.44C37.9199 33.7935 37.6334 34.08 37.2799 34.08H2.71992C2.36649 34.08 2.07995 33.7935 2.07995 33.44V25.0112C2.08013 24.8395 2.1493 24.6751 2.27194 24.5549L5.54489 21.28H12.7769C16.9887 24.6934 23.0149 24.6934 27.2268 21.28H34.4588L37.7279 24.5549ZM35.3599 20V19.36C35.3599 19.0066 35.6465 18.7201 35.9999 18.7201H37.2799C37.6334 18.7201 37.9199 19.0066 37.9199 19.36C37.9199 19.7135 37.6334 20 37.2799 20H35.3599Z" fill="white"/>
<path d="M14.304 11.9898C14.6434 11.9903 14.9692 11.8556 15.209 11.6154L15.545 11.2794L16.9376 12.672L16.6176 12.992C14.799 12.7945 13.1634 14.1053 12.96 15.9232C12.9411 16.3301 13.1415 16.7161 13.4853 16.9346C13.8291 17.1532 14.2635 17.1709 14.624 16.9811C15.0419 16.7584 15.2 16.9171 15.3011 17.0253C15.4022 17.1335 15.5622 17.2813 15.3434 17.6883C15.1529 18.0382 15.1605 18.4623 15.3634 18.8051C15.5662 19.1479 15.9345 19.3587 16.3328 19.36H16.3712C16.9132 19.3277 17.4348 19.1419 17.8752 18.8243C18.8874 18.1275 19.4397 16.9347 19.3165 15.712L19.648 15.3799L23.2531 18.985C23.7543 19.4859 24.5668 19.4859 25.0681 18.985L25.9699 18.08C26.4679 17.5804 26.4679 16.7722 25.9699 16.2726L22.3648 12.6682L23.3767 11.6557C24.3479 11.7782 25.3211 11.4435 26.0115 10.7494C26.5855 10.2221 26.943 9.5001 27.0144 8.72382V8.71934C27.034 8.31218 26.8337 7.92574 26.4897 7.70691C26.1458 7.48808 25.7109 7.47051 25.3504 7.66074C24.9318 7.8841 24.7699 7.72026 24.6701 7.6198C24.5703 7.51933 24.407 7.35612 24.6361 6.94461C24.8243 6.58544 24.8075 6.15333 24.592 5.80991C24.3867 5.46366 24.0065 5.25963 23.6045 5.27998C23.0622 5.31242 22.5403 5.49843 22.0999 5.81627C21.0826 6.51678 20.531 7.71844 20.6631 8.94649L19.6544 9.95577L18.2618 8.56313L18.8301 7.99484C19.156 7.66874 19.2813 7.1926 19.1583 6.74833C19.0352 6.304 18.6827 5.96027 18.2355 5.84833L16.0627 5.30499C15.6264 5.19708 15.1654 5.3247 14.8467 5.6416L12.0416 8.44735C11.8014 8.68741 11.6665 9.01307 11.6665 9.35264C11.6665 9.69222 11.8014 10.0179 12.0416 10.2579L13.3997 11.616C13.6393 11.856 13.9648 11.9906 14.304 11.9898V11.9898ZM25.0624 17.1738L24.16 18.08L20.5536 14.4768L21.4592 13.5712L25.0624 17.1738ZM21.8035 9.61733C21.9614 9.45954 22.0257 9.23082 21.9731 9.01382C21.7996 8.19181 22.1371 7.34604 22.8288 6.86921C22.9968 6.74909 23.1843 6.65876 23.383 6.60232C23.1123 7.2622 23.2649 8.0201 23.7697 8.52389C24.2746 9.02768 25.0329 9.17854 25.6921 8.90636C25.578 9.26414 25.3747 9.58703 25.1014 9.84459C24.6392 10.3171 23.9595 10.5064 23.3197 10.3406C23.101 10.2851 22.8693 10.3488 22.7097 10.5083L18.1786 15.0395C18.0222 15.1958 17.9575 15.4218 18.0077 15.6373C18.1728 16.4561 17.8342 17.2945 17.1468 17.7691C16.9781 17.8892 16.7899 17.9795 16.5907 18.036C16.8819 17.3806 16.728 16.6129 16.2067 16.1205C15.8928 15.7818 15.4525 15.5886 14.9907 15.5867C14.7466 15.5888 14.5052 15.637 14.2791 15.7288C14.3934 15.3709 14.5969 15.0481 14.8704 14.7905C15.3389 14.3148 16.0277 14.1288 16.672 14.3041C16.8915 14.361 17.1247 14.2975 17.2851 14.1371L21.8035 9.61733ZM18.7494 10.8608L17.8432 11.767L16.4506 10.3744L17.3568 9.46817L18.7494 10.8608ZM15.7523 6.54658L17.9283 7.08741L14.304 10.7105L12.9459 9.35302L15.7523 6.54658Z" fill="white"/>
</svg>
