<svg width="524" height="339" viewBox="0 0 524 339" fill="none" xmlns="http://www.w3.org/2000/svg">
<path d="M378.515 16.6342C346.097 6.17711 305.737 0 262.015 0C218.293 0 177.925 6.17898 145.498 16.6342C59.2562 44.4471 0 102.207 0 168.959C0 262.86 117.3 339 262.015 339C406.695 339 524 262.86 524 168.959C524 102.211 464.742 44.4695 378.515 16.6342ZM262.015 265.884C240.418 265.884 222.783 223.293 221.749 169.772C234.735 170.944 248.206 171.572 262.015 171.572C275.824 171.572 289.274 170.944 302.275 169.772C301.232 223.293 283.603 265.884 262.015 265.884ZM224.47 127.87C230.357 90.3033 244.939 63.6923 262.015 63.6923C279.09 63.6923 293.652 90.3033 299.534 127.87C287.538 128.958 274.971 129.553 262.015 129.553C249.059 129.553 236.49 128.951 224.47 127.87ZM322.48 125.037C313.724 66.0715 289.958 23.8019 262.015 23.8019C234.072 23.8019 210.291 66.0715 201.531 125.037C148.309 116.701 111.108 97.7326 111.108 75.6353C111.108 45.8581 178.674 21.7179 262.02 21.7179C345.367 21.7179 412.912 45.8581 412.912 75.6353C412.912 97.7326 375.711 116.701 322.486 125.037H322.48ZM38.2404 162.729C38.2404 133.947 49.283 106.966 68.5531 83.758C68.3321 85.3684 68.2195 86.9919 68.216 88.6175C68.216 124.828 122.433 155.609 198.032 166.929C197.972 169.664 197.928 172.403 197.928 175.173C197.928 242.503 216.544 299.532 242.283 319.194C127.929 312.183 38.2404 244.824 38.2404 162.729ZM281.749 319.202C307.475 299.539 326.091 242.514 326.091 175.181C326.091 172.411 326.061 169.671 326 166.937C401.579 155.62 455.806 124.839 455.806 88.6249C455.8 86.9991 455.684 85.3755 455.458 83.7655C474.724 106.973 485.773 133.95 485.773 162.737C485.773 244.832 396.081 312.191 281.762 319.205" fill="white"/>
</svg>
