<svg width="666" height="339" viewBox="0 0 666 339" fill="none" xmlns="http://www.w3.org/2000/svg">
<path fill-rule="evenodd" clip-rule="evenodd" d="M402.582 208.506C407.552 234.747 394.062 256.732 382.702 277.299C369.921 297.157 349.33 313.469 323.77 311.341C267.678 310.632 212.296 302.121 161.175 286.519C159.045 285.81 156.205 284.391 155.495 282.264C154.785 279.427 156.205 276.59 158.335 274.462C205.196 236.875 260.578 219.144 315.249 200.705C335.84 195.031 357.851 188.649 380.571 191.485C389.802 192.904 399.032 199.996 402.582 208.506ZM594.998 96.4519C621.269 117.728 644.699 147.515 636.889 182.975C624.109 235.456 566.597 263.115 521.156 280.845C496.305 289.356 471.454 297.866 444.473 299.994C443.053 299.994 440.213 299.994 439.503 297.866L440.213 295.029C478.554 251.768 507.665 203.542 533.226 153.898C545.296 131.912 555.947 109.218 565.887 86.5231C567.307 85.1047 568.727 83.6862 570.857 83.6862C580.798 84.3954 587.188 91.4875 594.998 96.4519ZM226.497 41.1339L225.787 43.9708C170.405 107.09 133.484 180.138 98.693 253.186C91.5928 259.569 85.2026 251.059 79.5224 248.222C48.2815 228.364 20.5906 195.741 28.4009 156.734C41.1812 106.381 93.7228 78.7218 137.034 60.9917C162.595 51.0628 189.576 43.2616 217.977 39.0063C220.817 39.0063 225.077 38.2971 226.497 41.1339ZM501.985 51.0628C504.825 52.4812 509.085 53.1904 510.505 56.7365C511.925 60.2825 509.085 62.4101 506.955 65.2469C463.644 99.2887 413.942 118.437 362.821 134.749C336.55 141.132 310.279 152.479 281.878 146.096C274.778 144.678 269.098 139.713 264.838 133.331C257.738 113.473 267.678 92.9059 275.488 75.1758C286.849 53.1904 306.729 27.659 333.71 27.659C393.352 27.659 449.444 36.1695 501.985 51.0628ZM575.117 53.1904C619.849 78.0126 670.97 120.565 665.29 178.011C658.9 231.201 609.198 268.08 565.177 290.774C435.953 352.475 253.478 354.603 119.994 300.703C74.5522 282.264 24.1407 249.64 4.97015 201.414C-9.9403 161.699 7.81024 119.856 37.6311 92.1967C100.113 35.4603 179.635 16.3118 261.288 4.96448C350.041 -5.67359 443.763 3.54607 522.576 31.2051C541.036 36.8787 558.787 43.9708 575.117 53.1904Z" fill="white"/>
</svg>
