<svg width="35" height="35" viewBox="0 0 35 35" fill="none" xmlns="http://www.w3.org/2000/svg">
<path d="M7.06581 23.2656C10.5179 27.3922 14.6736 30.6413 19.4166 32.9403C21.2225 33.7961 23.6375 34.8114 26.3281 34.9855C26.4949 34.9927 26.6545 35 26.8213 35C28.6271 35 30.0776 34.3763 31.2598 33.0926C31.267 33.0854 31.2815 33.0709 31.2888 33.0564C31.7094 32.5487 32.1881 32.0918 32.6885 31.6059C33.0293 31.2795 33.3774 30.9387 33.7111 30.5905C35.2558 28.9805 35.2558 26.9353 33.6966 25.3761L29.3379 21.0174C28.5981 20.2487 27.7133 19.8425 26.785 19.8425C25.8567 19.8425 24.9647 20.2487 24.2032 21.0102L21.6068 23.6065C21.3675 23.4687 21.1209 23.3454 20.8888 23.2294C20.5988 23.0843 20.3304 22.9465 20.0911 22.7942C17.7268 21.293 15.5801 19.3349 13.5277 16.8183C12.4906 15.5056 11.7944 14.4032 11.3085 13.2791C11.9902 12.6627 12.6284 12.0172 13.2448 11.3862C13.4624 11.1614 13.6872 10.9366 13.9121 10.7118C14.6953 9.92851 15.116 9.02196 15.116 8.10091C15.116 7.17986 14.7026 6.27331 13.9121 5.49005L11.7508 3.32884C11.497 3.07501 11.2577 2.82843 11.0111 2.5746C10.5324 2.08143 10.032 1.57377 9.53887 1.11687C8.79187 0.384376 7.91434 0 6.98603 0C6.06498 0 5.18019 0.384376 4.40418 1.12412L1.69179 3.83651C0.705468 4.82283 0.147034 6.01948 0.0309961 7.40468C-0.106799 9.138 0.212306 10.9801 1.03908 13.2066C2.30824 16.6515 4.22287 19.8498 7.06581 23.2656ZM1.80058 7.55698C1.88761 6.59242 2.25748 5.7874 2.95371 5.09117L5.65159 2.39329C6.07223 1.98715 6.53638 1.77683 6.98603 1.77683C7.42843 1.77683 7.87807 1.98715 8.29146 2.40779C8.77737 2.85744 9.23427 3.32884 9.72743 3.82926C9.97401 4.08309 10.2278 4.33693 10.4817 4.59801L12.6429 6.75922C13.0925 7.20887 13.3246 7.66577 13.3246 8.11542C13.3246 8.56506 13.0925 9.02196 12.6429 9.47161C12.4181 9.69644 12.1932 9.92851 11.9684 10.1533C11.2939 10.8351 10.663 11.4805 9.96676 12.097C9.95226 12.1115 9.945 12.1187 9.9305 12.1332C9.32855 12.7352 9.42283 13.3081 9.56788 13.7433C9.57513 13.765 9.58238 13.7795 9.58964 13.8013C10.1481 15.143 10.9241 16.4194 12.1352 17.9424C14.3109 20.6258 16.6027 22.7072 19.1265 24.31C19.4384 24.5131 19.772 24.6726 20.0838 24.8322C20.3739 24.9772 20.6423 25.115 20.8816 25.2673C20.9106 25.2818 20.9324 25.2963 20.9614 25.3108C21.2007 25.4341 21.4328 25.4921 21.6649 25.4921C22.245 25.4921 22.6222 25.1223 22.7455 24.999L25.4578 22.2866C25.8785 21.8659 26.3354 21.6411 26.785 21.6411C27.3362 21.6411 27.7859 21.982 28.0687 22.2866L32.4419 26.6525C33.3122 27.5228 33.3049 28.4656 32.4201 29.3867C32.1155 29.713 31.7964 30.0249 31.4556 30.3512C30.9479 30.8444 30.4185 31.3521 29.9398 31.925C29.1058 32.8243 28.1122 33.2449 26.8285 33.2449C26.7053 33.2449 26.5747 33.2377 26.4514 33.2304C24.0726 33.0781 21.8607 32.1498 20.1999 31.3593C15.6889 29.1763 11.7291 26.0796 8.44376 22.1488C5.73862 18.8925 3.91827 15.861 2.71438 12.6119C1.96738 10.6175 1.68454 9.01471 1.80058 7.55698Z" fill="white"/>
</svg>
