<svg width="227" height="41" viewBox="0 0 227 41" fill="none" xmlns="http://www.w3.org/2000/svg">
<path d="M0 32.8V8.20004C0 7.88864 0.234359 7.62915 0.51559 7.62915H25.217C25.4982 7.62915 25.7326 7.88864 25.7326 8.20004V9.8608C25.7326 10.1722 25.4982 10.4317 25.217 10.4317H3.46851C3.18728 10.4317 2.95292 10.6912 2.95292 11.0026V32.8C2.95292 33.1114 2.71856 33.3709 2.43733 33.3709H0.562461C0.234359 33.3709 0 33.1114 0 32.8Z" fill="white"/>
<path d="M22.311 33.3709H20.483C20.2018 33.3709 19.9674 33.1114 19.9674 32.8V32.6962C19.9674 32.5924 20.0143 32.4886 20.0612 32.3849L34.4039 7.88864C34.4977 7.73295 34.6851 7.62915 34.8258 7.62915H37.8256C38.013 7.62915 38.1537 7.73295 38.2474 7.88864L52.637 32.3849C52.6839 32.4886 52.7308 32.5924 52.7308 32.6962V32.8C52.7308 33.1114 52.4964 33.3709 52.2152 33.3709H50.0591C49.8716 33.3709 49.731 33.2671 49.6372 33.1114L45.8406 26.5722C45.7469 26.4165 45.5594 26.3127 45.4188 26.3127H26.9513C26.7638 26.3127 26.6232 26.4165 26.5295 26.5722L22.7328 33.1114C22.6391 33.2671 22.4985 33.3709 22.311 33.3709ZM35.7163 10.6912L28.8262 22.576C28.5918 22.9393 28.873 23.4583 29.248 23.4583H43.0283C43.4502 23.4583 43.6845 22.9393 43.4502 22.576L36.6069 10.6912C36.4194 10.3279 35.9507 10.3279 35.7163 10.6912Z" fill="white"/>
<path d="M76.4478 7.62915C80.3382 7.62915 82.3068 9.5494 82.3068 13.338V16.1924C82.3068 19.9811 80.3382 21.9013 76.4478 21.9013H58.9647C58.6834 21.9013 58.4491 22.1608 58.4491 22.4722V32.8C58.4491 33.1114 58.2147 33.3709 57.9335 33.3709H56.0586C55.7774 33.3709 55.543 33.1114 55.543 32.8V8.20004C55.543 7.88864 55.7774 7.62915 56.0586 7.62915H76.4478ZM76.4478 10.4317H58.9647C58.6834 10.4317 58.4491 10.6912 58.4491 11.0026V18.5279C58.4491 18.8393 58.6834 19.0988 58.9647 19.0988H76.4478C77.479 19.0988 78.229 18.8912 78.6977 18.4241C79.1664 17.957 79.4008 17.2304 79.4008 16.1924V13.338C79.4008 12.3 79.1664 11.5216 78.6977 11.1064C78.229 10.6393 77.479 10.4317 76.4478 10.4317Z" fill="white"/>
<path d="M81.9787 33.3709H80.1507C79.8695 33.3709 79.6351 33.1114 79.6351 32.8V32.6962C79.6351 32.5924 79.682 32.4886 79.7289 32.3849L94.0716 7.88864C94.1654 7.73295 94.3529 7.62915 94.4935 7.62915H97.4933C97.6808 7.62915 97.8214 7.73295 97.9151 7.88864L112.305 32.3849C112.352 32.4886 112.399 32.5924 112.399 32.6962V32.8C112.399 33.1114 112.164 33.3709 111.883 33.3709H109.68C109.492 33.3709 109.352 33.2671 109.258 33.1114L105.461 26.5203C105.368 26.3646 105.18 26.2608 105.04 26.2608H86.6659C86.4784 26.2608 86.3378 26.3646 86.2441 26.5203L82.4474 33.0595C82.3537 33.2671 82.1662 33.3709 81.9787 33.3709ZM95.4309 10.6912L88.5408 22.576C88.3064 22.9393 88.5876 23.4583 88.9626 23.4583H102.743C103.165 23.4583 103.399 22.9393 103.165 22.576L96.2746 10.6912C96.0871 10.3279 95.6184 10.3279 95.4309 10.6912Z" fill="white"/>
<path d="M135.694 8.20004V18.5279C135.694 18.8393 135.928 19.0988 136.209 19.0988H140.475C140.615 19.0988 140.756 19.0469 140.85 18.9431L151.724 7.78485C151.818 7.68105 151.958 7.62915 152.099 7.62915H154.068C154.349 7.62915 154.583 7.88864 154.583 8.20004C154.583 8.35573 154.536 8.51143 154.396 8.61523L143.287 19.9811C143.053 20.2405 143.053 20.6038 143.287 20.8633L155.005 32.333C155.099 32.4367 155.192 32.5924 155.192 32.7481C155.192 33.0595 154.958 33.319 154.677 33.319H152.193C152.052 33.319 151.958 33.2671 151.865 33.1633L140.522 22.0051C140.428 21.9013 140.287 21.8494 140.193 21.8494H136.256C135.975 21.8494 135.741 22.1089 135.741 22.4203V32.7481C135.741 33.0595 135.506 33.319 135.225 33.319H133.397C133.116 33.319 132.881 33.0595 132.881 32.7481V22.4722C132.881 22.1608 132.647 21.9013 132.366 21.9013H128.194C128.054 21.9013 127.96 21.9532 127.866 22.057L116.383 33.2152C116.289 33.319 116.148 33.3709 116.055 33.3709H113.805C113.523 33.3709 113.289 33.1114 113.289 32.8C113.289 32.6443 113.336 32.4886 113.477 32.3849L125.148 20.9152C125.382 20.7076 125.382 20.2924 125.148 20.0329L114.086 8.66713C113.992 8.56333 113.898 8.40763 113.898 8.25194C113.898 7.94054 114.133 7.68105 114.414 7.68105H116.523C116.664 7.68105 116.804 7.73295 116.898 7.83675L127.772 18.995C127.866 19.0988 128.007 19.1507 128.147 19.1507H132.272C132.553 19.1507 132.788 18.8912 132.788 18.5798V8.20004C132.788 7.88864 133.022 7.62915 133.303 7.62915H135.131C135.459 7.62915 135.694 7.88864 135.694 8.20004Z" fill="white"/>
<path d="M222.594 41H171.457C169.02 41 167.051 38.8203 167.051 36.1215V4.87848C167.051 2.17975 169.02 0 171.457 0H222.594C225.031 0 227 2.17975 227 4.87848V36.0696C227 38.8203 225.031 41 222.594 41Z" fill="#FF1A3B"/>
<path d="M180.128 8.87462V32.1771C180.128 32.8518 179.613 33.4227 179.003 33.4227H178.3C177.691 33.4227 177.175 32.8518 177.175 32.1771V11.4177C177.175 10.743 176.66 10.1721 176.05 10.1721H174.644C174.035 10.1721 173.519 9.6012 173.519 8.92652V8.82272C173.519 8.14803 174.035 7.57715 174.644 7.57715H178.956C179.613 7.62905 180.128 8.19993 180.128 8.87462Z" fill="white"/>
<path d="M190.487 8.87462V32.1771C190.487 32.8518 189.971 33.4227 189.362 33.4227H188.659C188.05 33.4227 187.534 32.8518 187.534 32.1771V11.4177C187.534 10.743 187.018 10.1721 186.409 10.1721H185.003C184.394 10.1721 183.878 9.6012 183.878 8.92652V8.82272C183.878 8.14803 184.394 7.57715 185.003 7.57715H189.315C190.018 7.62905 190.487 8.19993 190.487 8.87462Z" fill="white"/>
<path d="M215.048 33.3708H195.877C195.549 33.3708 195.268 33.2151 195.033 32.9556C194.846 32.748 194.752 32.4366 194.752 32.1771V31.8139C194.752 31.1392 195.268 30.5683 195.877 30.5683H215.048C216.079 30.5683 216.829 30.3607 217.298 29.9455C217.766 29.5303 218.001 28.7518 218.001 27.7139V24.7556C218.001 23.7177 217.766 22.9392 217.298 22.524C216.829 22.1088 216.079 21.9012 215.048 21.9012H204.783C204.173 21.9012 203.658 21.3303 203.658 20.6556V20.2923C203.658 19.6177 204.173 19.0468 204.783 19.0468H215.048C216.079 19.0468 216.829 18.8392 217.298 18.3721C217.766 17.905 218.001 17.1784 218.001 16.1404V13.286C218.001 12.248 217.766 11.4696 217.298 11.0544C216.829 10.5873 216.079 10.3797 215.048 10.3797H195.877C195.268 10.3797 194.752 9.80879 194.752 9.13411V8.82272C194.752 8.56322 194.846 8.25183 194.987 8.04424C195.174 7.78474 195.502 7.57715 195.83 7.57715H214.954C218.844 7.57715 220.813 9.4974 220.813 13.286V15.7771C220.813 17.386 220.297 18.6316 219.313 19.462C218.704 19.9809 218.704 20.9151 219.313 21.4341C220.297 22.2645 220.813 23.5101 220.813 25.1189V27.662C220.907 31.5025 218.938 33.3708 215.048 33.3708Z" fill="white"/>
</svg>
